<?xml version="1.0" encoding="UTF-8" standalone="no"?>
<!-- Created with Inkscape (http://www.inkscape.org/) -->

<svg
   xmlns:dc="http://purl.org/dc/elements/1.1/"
   xmlns:cc="http://creativecommons.org/ns#"
   xmlns:rdf="http://www.w3.org/1999/02/22-rdf-syntax-ns#"
   xmlns:svg="http://www.w3.org/2000/svg"
   xmlns="http://www.w3.org/2000/svg"
   xmlns:sodipodi="http://sodipodi.sourceforge.net/DTD/sodipodi-0.dtd"
   xmlns:inkscape="http://www.inkscape.org/namespaces/inkscape"
   width="602.36218"
   height="885.82672"
   id="svg46128"
   sodipodi:version="0.32"
   inkscape:version="0.48.4 r9939"
   sodipodi:docname="shuttle-takeoff.svg"
   inkscape:output_extension="org.inkscape.output.svg.inkscape"
   version="1.1">
  <defs
     id="defs46130">
    <inkscape:perspective
       sodipodi:type="inkscape:persp3d"
       inkscape:vp_x="0 : 526.18109 : 1"
       inkscape:vp_y="0 : 1000 : 0"
       inkscape:vp_z="744.09448 : 526.18109 : 1"
       inkscape:persp3d-origin="372.04724 : 350.78739 : 1"
       id="perspective46136" />
  </defs>
  <sodipodi:namedview
     id="base"
     pagecolor="#ffffff"
     bordercolor="#666666"
     borderopacity="1.0"
     gridtolerance="10000"
     guidetolerance="10"
     objecttolerance="10"
     inkscape:pageopacity="0.0"
     inkscape:pageshadow="2"
     inkscape:zoom="0.49497475"
     inkscape:cx="911.33221"
     inkscape:cy="224.94423"
     inkscape:document-units="px"
     inkscape:current-layer="layer1"
     showgrid="false"
     inkscape:window-width="1920"
     inkscape:window-height="1027"
     inkscape:window-x="0"
     inkscape:window-y="31"
     units="mm"
     inkscape:window-maximized="1" />
  <metadata
     id="metadata46133">
    <rdf:RDF>
      <cc:Work
         rdf:about="">
        <dc:format>image/svg+xml</dc:format>
        <dc:type
           rdf:resource="http://purl.org/dc/dcmitype/StillImage" />
      </cc:Work>
    </rdf:RDF>
  </metadata>
  <g
     inkscape:label="Layer 1"
     inkscape:groupmode="layer"
     id="layer1"
     transform="translate(0,-166.53544)">
    <path
       d="m 84.488057,1010.9877 c -5.690678,-0.3625 -11.18504,-2.7033 -15.097889,-6.9408 -7.822979,-8.46958 -6.53869,-21.51459 2.843971,-28.89412 1.832363,-1.44156 3.847414,-2.56703 5.960629,-3.38183"
       style="fill:#ffffff;fill-opacity:1;fill-rule:evenodd;stroke:none"
       id="path16511"
       inkscape:connector-curvature="0" />
    <path
       d="m 84.488067,1010.9877 c -5.690678,-0.3625 -11.185039,-2.7033 -15.097887,-6.9408 -7.822984,-8.46961 -6.538695,-21.51461 2.84397,-28.89414 1.832363,-1.44157 3.847414,-2.56703 5.960628,-3.38185"
       style="fill:none;stroke:#c8c8c8;stroke-width:3.03257132;stroke-linecap:butt;stroke-linejoin:miter;stroke-miterlimit:14.30000019;stroke-opacity:1;stroke-dasharray:none"
       id="path16513"
       inkscape:connector-curvature="0" />
    <path
       d="m 156.41096,931.80481 c -4.36277,1.57238 -7.74118,4.55634 -9.81623,8.22704 l -1.81327,-2.81503 c -10.39701,-10.07191 -27.65174,-13.78076 -43.42041,-8.0935 -20.346849,7.33321 -31.019257,27.71142 -23.643461,45.13563"
       style="fill:#ffffff;fill-opacity:1;fill-rule:evenodd;stroke:none"
       id="path16515"
       inkscape:connector-curvature="0" />
    <path
       d="m 156.41096,931.80479 c -4.36276,1.57238 -7.74117,4.55634 -9.81622,8.22704 l -1.81328,-2.81503 c -10.39701,-10.07191 -27.65174,-13.78076 -43.4204,-8.0935 -20.346847,7.33321 -31.019256,27.71142 -23.64346,45.13563"
       style="fill:none;stroke:#c8c8c8;stroke-width:3.03257132;stroke-linecap:butt;stroke-linejoin:miter;stroke-miterlimit:14.30000019;stroke-opacity:1;stroke-dasharray:none"
       id="path16517"
       inkscape:connector-curvature="0" />
    <path
       d="m 134.82345,941.59604 c 1.58151,-9.64408 11.32683,-16.40503 21.58751,-14.97163 10.25794,1.4334 17.40197,10.54882 15.82047,20.19563"
       style="fill:#ffffff;fill-opacity:1;fill-rule:evenodd;stroke:none"
       id="path16519"
       inkscape:connector-curvature="0" />
    <path
       d="m 134.82346,941.59602 c 1.5815,-9.64408 11.32683,-16.40503 21.5875,-14.97163 10.25795,1.4334 17.40198,10.54882 15.82048,20.19563"
       style="fill:none;stroke:#c8c8c8;stroke-width:3.03257132;stroke-linecap:butt;stroke-linejoin:miter;stroke-miterlimit:14.30000019;stroke-opacity:1;stroke-dasharray:none"
       id="path16521"
       inkscape:connector-curvature="0" />
    <path
       d="m 85.107024,1010.9986 c -5.690677,-0.3624 -11.187767,-2.7033 -15.100619,-6.9408 -7.822975,-8.46959 -6.538686,-21.51731 2.843974,-28.89686 5.865193,-4.61083 13.595474,-5.98973 20.477733,-4.30563"
       style="fill:#ffffff;fill-opacity:1;fill-rule:evenodd;stroke:none"
       id="path16523"
       inkscape:connector-curvature="0" />
    <path
       d="m 85.107036,1010.9986 c -5.690689,-0.3625 -11.187768,-2.7033 -15.100621,-6.9408 -7.822979,-8.46961 -6.53869,-21.51733 2.843976,-28.89688 5.865191,-4.61084 13.595462,-5.98974 20.477721,-4.30563"
       style="fill:none;stroke:#c8c8c8;stroke-width:1.01085711;stroke-linecap:butt;stroke-linejoin:miter;stroke-miterlimit:11.5;stroke-opacity:1;stroke-dasharray:none"
       id="path16525"
       inkscape:connector-curvature="0" />
    <path
       d="m 157.53982,931.80481 c -4.36549,1.57238 -7.74118,4.55634 -9.81894,8.22704 l -1.81056,-2.81503 c -10.39701,-10.07191 -27.65174,-13.78076 -43.4204,-8.0935 -20.346847,7.33594 -31.019255,27.71142 -23.64346,45.13563"
       style="fill:#ffffff;fill-opacity:1;fill-rule:evenodd;stroke:none"
       id="path16527"
       inkscape:connector-curvature="0" />
    <path
       d="m 157.53983,931.80479 c -4.36549,1.57238 -7.74118,4.55634 -9.81894,8.22704 l -1.81056,-2.81503 c -10.39701,-10.07191 -27.65174,-13.78076 -43.42041,-8.0935 -20.346836,7.33593 -31.019255,27.71142 -23.64346,45.13563"
       style="fill:none;stroke:#c8c8c8;stroke-width:1.01085711;stroke-linecap:butt;stroke-linejoin:miter;stroke-miterlimit:11.5;stroke-opacity:1;stroke-dasharray:none"
       id="path16529"
       inkscape:connector-curvature="0" />
    <path
       d="m 135.94959,941.59604 c 1.5815,-9.64408 11.32955,-16.40503 21.5875,-14.97163 10.26068,1.4334 17.40471,10.54882 15.8232,20.19563"
       style="fill:#ffffff;fill-opacity:1;fill-rule:evenodd;stroke:none"
       id="path16531"
       inkscape:connector-curvature="0" />
    <path
       d="m 135.94959,941.59602 c 1.58151,-9.64408 11.32956,-16.40503 21.58751,-14.97163 10.26069,1.4334 17.40471,10.54882 15.8232,20.19563"
       style="fill:none;stroke:#c8c8c8;stroke-width:1.01085711;stroke-linecap:butt;stroke-linejoin:miter;stroke-miterlimit:11.5;stroke-opacity:1;stroke-dasharray:none"
       id="path16533"
       inkscape:connector-curvature="0" />
    <path
       d="m 106.28825,989.20878 -22.566406,0 -2.255005,-32.25141 68.825331,-19.78142 18.05367,44.76775"
       style="fill:#ffffff;fill-opacity:1;fill-rule:evenodd;stroke:none"
       id="path16535"
       inkscape:connector-curvature="0" />
    <path
       d="m 118.73849,949.94026 c 2.13502,-7.34138 10.65332,-11.7097 18.86895,-9.67406 8.21564,2.03564 13.21918,9.75309 11.08415,17.09448"
       style="fill:#ffffff;fill-opacity:1;fill-rule:evenodd;stroke:none"
       id="path16537"
       inkscape:connector-curvature="0" />
    <path
       d="m 118.7385,949.94024 c 2.13502,-7.34138 10.65332,-11.7097 18.86896,-9.67406 8.21562,2.03564 13.21917,9.75309 11.08414,17.09448"
       style="fill:none;stroke:#c8c8c8;stroke-width:1.01085711;stroke-linecap:butt;stroke-linejoin:miter;stroke-miterlimit:11.5;stroke-opacity:1;stroke-dasharray:none"
       id="path16539"
       inkscape:connector-curvature="0" />
    <path
       d="m 470.80265,835.23585 c 7.40579,-19.90404 30.70295,-25.87197 47.94132,-21.45461 20.44229,5.24034 32.6553,24.88005 27.05187,43.50876 -0.43629,1.44974 -0.97071,2.85316 -1.58969,4.21026"
       style="fill:#ffffff;fill-opacity:1;fill-rule:evenodd;stroke:none"
       id="path16543"
       inkscape:connector-curvature="0" />
    <path
       d="m 470.80266,835.23583 c 7.40579,-19.90404 30.70295,-25.87197 47.94132,-21.45461 20.44229,5.24034 32.6553,24.88005 27.05187,43.50876 -0.43629,1.44974 -0.97071,2.85316 -1.58969,4.21026"
       style="fill:none;stroke:#c8c8c8;stroke-width:3.03257132;stroke-linecap:butt;stroke-linejoin:miter;stroke-miterlimit:14.30000019;stroke-opacity:1;stroke-dasharray:none"
       id="path16545"
       inkscape:connector-curvature="0" />
    <path
       d="m 312.06893,851.00594 c -2.43497,-5.74993 -9.29268,-8.72845 -15.19606,-6.60289 -2.5822,0.93198 -4.5809,2.69512 -5.80793,4.86701 l -1.0716,-1.66502 c -6.1515,-5.95706 -16.35764,-8.15074 -25.6885,-4.78799 -12.03577,4.34108 -18.35087,16.39686 -13.98811,26.70314"
       style="fill:#ffffff;fill-opacity:1;fill-rule:evenodd;stroke:none"
       id="path16559"
       inkscape:connector-curvature="0" />
    <path
       d="m 312.06894,851.00592 c -2.43498,-5.74993 -9.29269,-8.72845 -15.19605,-6.60289 -2.58221,0.93198 -4.58091,2.69511 -5.80794,4.86701 l -1.0716,-1.66502 c -6.1515,-5.95706 -16.35764,-8.15075 -25.68851,-4.78799 -12.03577,4.34108 -18.35086,16.39686 -13.9881,26.70314"
       style="fill:none;stroke:#c8c8c8;stroke-width:3.03257132;stroke-linecap:butt;stroke-linejoin:miter;stroke-miterlimit:14.30000019;stroke-opacity:1;stroke-dasharray:none"
       id="path16561"
       inkscape:connector-curvature="0" />
    <path
       d="m 211.61628,902.2921 c -0.22086,-15.65563 11.15777,-30.31933 28.39068,-34.74487 6.35329,-1.6296 12.80472,-1.68955 18.84715,-0.44147"
       style="fill:#ffffff;fill-opacity:1;fill-rule:evenodd;stroke:none"
       id="path16563"
       inkscape:connector-curvature="0" />
    <path
       d="m 211.61628,902.29208 c -0.22085,-15.65563 11.15778,-30.31933 28.39069,-34.74488 6.35328,-1.62959 12.80472,-1.68954 18.84715,-0.44145"
       style="fill:none;stroke:#c8c8c8;stroke-width:3.03257132;stroke-linecap:butt;stroke-linejoin:miter;stroke-miterlimit:14.30000019;stroke-opacity:1;stroke-dasharray:none"
       id="path16565"
       inkscape:connector-curvature="0" />
    <path
       d="m 166.70436,950.80412 c -5.78612,-4.20482 -9.80259,-10.39349 -10.6397,-17.53595 -1.67147,-14.29035 9.97165,-27.34898 25.7894,-28.9268 9.8871,-0.98648 19.21797,2.73053 25.23585,9.14539"
       style="fill:#ffffff;fill-opacity:1;fill-rule:evenodd;stroke:none"
       id="path16567"
       inkscape:connector-curvature="0" />
    <path
       d="m 166.70437,950.80409 c -5.78613,-4.20481 -9.80259,-10.39348 -10.6397,-17.53594 -1.67148,-14.29035 9.97165,-27.34898 25.78939,-28.9268 9.88711,-0.98648 19.21798,2.73053 25.23586,9.14539"
       style="fill:none;stroke:#c8c8c8;stroke-width:3.03257132;stroke-linecap:butt;stroke-linejoin:miter;stroke-miterlimit:14.30000019;stroke-opacity:1;stroke-dasharray:none"
       id="path16569"
       inkscape:connector-curvature="0" />
    <path
       d="m 165.85907,974.24532 c -8.2729,-0.47689 -14.7107,-6.34673 -14.26351,-13.00412 0.44991,-6.65739 7.62938,-11.74512 15.90226,-11.26823"
       style="fill:#ffffff;fill-opacity:1;fill-rule:evenodd;stroke:none"
       id="path16571"
       inkscape:connector-curvature="0" />
    <path
       d="m 165.85907,974.2453 c -8.27289,-0.47689 -14.71069,-6.34673 -14.26351,-13.00412 0.44991,-6.65739 7.62939,-11.74512 15.90227,-11.26824"
       style="fill:none;stroke:#c8c8c8;stroke-width:3.03257132;stroke-linecap:butt;stroke-linejoin:miter;stroke-miterlimit:14.30000019;stroke-opacity:1;stroke-dasharray:none"
       id="path16573"
       inkscape:connector-curvature="0" />
    <path
       d="m 382.7757,945.86898 c -7.3458,-0.46871 -14.44348,-3.49356 -19.49338,-8.96281 -10.10251,-10.93851 -8.45012,-27.78228 3.662,-37.30646 7.5694,-5.95159 17.54921,-7.73106 26.43562,-5.55645"
       style="fill:#ffffff;fill-opacity:1;fill-rule:evenodd;stroke:none"
       id="path16575"
       inkscape:connector-curvature="0" />
    <path
       d="m 382.77571,945.86896 c -7.3458,-0.46871 -14.44348,-3.49356 -19.49338,-8.96281 -10.10251,-10.93851 -8.45012,-27.78228 3.66201,-37.30646 7.56939,-5.95159 17.5492,-7.73107 26.43561,-5.55645"
       style="fill:none;stroke:#c8c8c8;stroke-width:3.03257132;stroke-linecap:butt;stroke-linejoin:miter;stroke-miterlimit:14.30000019;stroke-opacity:1;stroke-dasharray:none"
       id="path16577"
       inkscape:connector-curvature="0" />
    <path
       d="m 383.56646,941.72686 c -2.82762,-2.31633 -6.90409,-3.39001 -10.98054,-2.53434 -6.52234,1.36799 -10.7324,7.18605 -9.32814,12.88966 0.61352,2.49346 2.20865,4.57815 4.35459,6.02245 l -1.94415,0.73032 c -7.29673,4.73076 -11.16323,13.72082 -8.94095,22.73541 2.8658,11.62796 14.84703,19.17914 26.54197,16.72387"
       style="fill:#ffffff;fill-opacity:1;fill-rule:evenodd;stroke:none"
       id="path16579"
       inkscape:connector-curvature="0" />
    <path
       d="m 383.56646,941.72684 c -2.82761,-2.31633 -6.90408,-3.39001 -10.98053,-2.53434 -6.52233,1.36799 -10.7324,7.18605 -9.32814,12.88966 0.61352,2.49346 2.20865,4.57815 4.35459,6.02245 l -1.94415,0.73032 c -7.29673,4.73075 -11.16323,13.72082 -8.94095,22.73541 2.8658,11.62795 14.84703,19.17916 26.54197,16.72386"
       style="fill:none;stroke:#c8c8c8;stroke-width:3.03257132;stroke-linecap:butt;stroke-linejoin:miter;stroke-miterlimit:14.30000019;stroke-opacity:1;stroke-dasharray:none"
       id="path16581"
       inkscape:connector-curvature="0" />
    <path
       d="m 384.17725,941.72686 c -2.82763,-2.31633 -6.90408,-3.39001 -10.98055,-2.53434 -6.52233,1.36799 -10.73239,7.18605 -9.32813,12.88966 0.61352,2.49346 2.20865,4.57815 4.35458,6.02245 l -1.94415,0.73032 c -7.29672,4.73076 -11.16322,13.72082 -8.94093,22.73541 2.86578,11.62796 14.84702,19.17914 26.54195,16.72387"
       style="fill:#ffffff;fill-opacity:1;fill-rule:evenodd;stroke:none"
       id="path16583"
       inkscape:connector-curvature="0" />
    <path
       d="m 384.17726,941.72684 c -2.82762,-2.31633 -6.90408,-3.39001 -10.98055,-2.53434 -6.52233,1.36799 -10.73238,7.18605 -9.32813,12.88966 0.61352,2.49346 2.20865,4.57815 4.35458,6.02245 l -1.94415,0.73032 c -7.29672,4.73075 -11.16322,13.72082 -8.94093,22.73541 2.86578,11.62795 14.84702,19.17916 26.54195,16.72386"
       style="fill:none;stroke:#c8c8c8;stroke-width:1.01085711;stroke-linecap:butt;stroke-linejoin:miter;stroke-miterlimit:11.5;stroke-opacity:1;stroke-dasharray:none"
       id="path16585"
       inkscape:connector-curvature="0" />
    <path
       d="m 471.73247,834.41289 c 8.32742,-19.08108 29.45411,-25.05175 46.69248,-20.63438 20.44227,5.23762 32.65528,24.88006 27.05186,43.50604 -0.43627,1.44975 -0.97072,2.85589 -1.58968,4.21025"
       style="fill:#ffffff;fill-opacity:1;fill-rule:evenodd;stroke:none"
       id="path16587"
       inkscape:connector-curvature="0" />
    <path
       d="m 471.73248,834.41286 c 8.32742,-19.08107 29.45411,-25.05174 46.69248,-20.63437 20.44227,5.23762 32.65528,24.88006 27.05187,43.50604 -0.43628,1.44975 -0.97073,2.85589 -1.58969,4.21025"
       style="fill:none;stroke:#c8c8c8;stroke-width:1.01085711;stroke-linecap:butt;stroke-linejoin:miter;stroke-miterlimit:11.5;stroke-opacity:1;stroke-dasharray:none"
       id="path16589"
       inkscape:connector-curvature="0" />
    <path
       d="m 529.72451,872.74124 c 0,-9.75308 8.54283,-17.7812 18.92348,-17.7812 10.37793,0 18.92078,8.02812 18.92078,17.7812"
       style="fill:#ffffff;fill-opacity:1;fill-rule:evenodd;stroke:none"
       id="path16599"
       inkscape:connector-curvature="0" />
    <path
       d="m 529.72452,872.74122 c 0,-9.75309 8.54283,-17.7812 18.92349,-17.7812 10.37792,0 18.92077,8.02811 18.92077,17.7812"
       style="fill:none;stroke:#c8c8c8;stroke-width:1.01085711;stroke-linecap:butt;stroke-linejoin:miter;stroke-miterlimit:11.5;stroke-opacity:1;stroke-dasharray:none"
       id="path16601"
       inkscape:connector-curvature="0" />
    <path
       d="m 484.75259,918.02131 c -6.36692,-7.7883 -4.78813,-18.94481 3.49566,-24.71382 8.2838,-5.76901 20.34139,-4.10944 26.70829,3.67886"
       style="fill:#ffffff;fill-opacity:1;fill-rule:evenodd;stroke:none"
       id="path16603"
       inkscape:connector-curvature="0" />
    <path
       d="m 484.7526,918.02129 c -6.36692,-7.7883 -4.78813,-18.94481 3.49566,-24.71382 8.2838,-5.76901 20.34139,-4.10944 26.70829,3.67886"
       style="fill:none;stroke:#c8c8c8;stroke-width:1.01085711;stroke-linecap:butt;stroke-linejoin:miter;stroke-miterlimit:11.5;stroke-opacity:1;stroke-dasharray:none"
       id="path16605"
       inkscape:connector-curvature="0" />
    <path
       d="m 512.77243,901.36012 c -1.10158,-6.72007 0.55353,-13.76987 5.24078,-19.5089 9.37177,-11.47808 27.5454,-13.6527 40.25469,-4.81523 7.94295,5.52103 11.99486,14.12412 11.62676,22.60188"
       style="fill:#ffffff;fill-opacity:1;fill-rule:evenodd;stroke:none"
       id="path16607"
       inkscape:connector-curvature="0" />
    <path
       d="m 512.77244,901.3601 c -1.10158,-6.72007 0.55353,-13.76987 5.24078,-19.5089 9.37177,-11.47808 27.5454,-13.6527 40.25469,-4.81523 7.94295,5.52103 11.99486,14.12412 11.62676,22.60188"
       style="fill:none;stroke:#c8c8c8;stroke-width:1.01085711;stroke-linecap:butt;stroke-linejoin:miter;stroke-miterlimit:11.5;stroke-opacity:1;stroke-dasharray:none"
       id="path16609"
       inkscape:connector-curvature="0" />
    <path
       d="m 496.62476,918.50365 c -1.38791,-9.67133 5.93609,-18.66413 16.2213,-19.92313 10.28795,-1.25897 19.89693,5.66546 21.28484,15.33408"
       style="fill:#ffffff;fill-opacity:1;fill-rule:evenodd;stroke:none"
       id="path16611"
       inkscape:connector-curvature="0" />
    <path
       d="m 496.62477,918.50363 c -1.38791,-9.67134 5.93609,-18.66413 16.2213,-19.92313 10.28795,-1.25898 19.89694,5.66546 21.28484,15.33408"
       style="fill:none;stroke:#c8c8c8;stroke-width:1.01085711;stroke-linecap:butt;stroke-linejoin:miter;stroke-miterlimit:11.5;stroke-opacity:1;stroke-dasharray:none"
       id="path16613"
       inkscape:connector-curvature="0" />
    <path
       d="m 311.59175,861.40215 c 2.06413,-2.92401 2.60948,-6.80454 1.08796,-10.39621 -2.43496,-5.74993 -9.29541,-8.72845 -15.19605,-6.60289 -2.58221,0.93198 -4.5809,2.69512 -5.80793,4.86701 l -1.07161,-1.66502 c -6.15148,-5.95706 -16.36035,-8.15074 -25.68849,-4.78799 -12.0385,4.34108 -18.35088,16.39686 -13.98811,26.70314"
       style="fill:#ffffff;fill-opacity:1;fill-rule:evenodd;stroke:none"
       id="path16615"
       inkscape:connector-curvature="0" />
    <path
       d="m 311.59176,861.40213 c 2.06413,-2.92401 2.60948,-6.80454 1.08796,-10.39621 -2.43496,-5.74993 -9.2954,-8.72845 -15.19606,-6.60289 -2.5822,0.93198 -4.5809,2.69511 -5.80792,4.86701 l -1.07161,-1.66502 c -6.15149,-5.95706 -16.36035,-8.15075 -25.68849,-4.78799 -12.0385,4.34108 -18.35088,16.39686 -13.98811,26.70314"
       style="fill:none;stroke:#c8c8c8;stroke-width:1.01085711;stroke-linecap:butt;stroke-linejoin:miter;stroke-miterlimit:11.5;stroke-opacity:1;stroke-dasharray:none"
       id="path16617"
       inkscape:connector-curvature="0" />
    <path
       d="m 212.22707,902.2921 c -0.22359,-15.65563 11.15504,-30.31933 28.39069,-34.74487 20.43955,-5.2458 41.88254,5.76356 47.49686,24.38681 0.43901,1.44975 0.76621,2.90767 0.99254,4.36287"
       style="fill:#ffffff;fill-opacity:1;fill-rule:evenodd;stroke:none"
       id="path16619"
       inkscape:connector-curvature="0" />
    <path
       d="m 212.22708,902.29208 c -0.22359,-15.65563 11.15504,-30.31933 28.39068,-34.74488 20.43956,-5.24579 41.88255,5.76357 47.49687,24.38682 0.43901,1.44975 0.76622,2.90766 0.99253,4.36287"
       style="fill:none;stroke:#c8c8c8;stroke-width:1.01085711;stroke-linecap:butt;stroke-linejoin:miter;stroke-miterlimit:11.5;stroke-opacity:1;stroke-dasharray:none"
       id="path16621"
       inkscape:connector-curvature="0" />
    <path
       d="m 192.24015,917.72701 c -1.3879,-9.66862 5.93609,-18.66414 16.22403,-19.9204 10.28795,-1.25899 19.89694,5.66545 21.28485,15.33406"
       style="fill:#ffffff;fill-opacity:1;fill-rule:evenodd;stroke:none"
       id="path16623"
       inkscape:connector-curvature="0" />
    <path
       d="m 192.24016,917.72699 c -1.3879,-9.66862 5.93609,-18.66414 16.22403,-19.92041 10.28795,-1.259 19.89694,5.66546 21.28484,15.33407"
       style="fill:none;stroke:#c8c8c8;stroke-width:1.01085711;stroke-linecap:butt;stroke-linejoin:miter;stroke-miterlimit:11.5;stroke-opacity:1;stroke-dasharray:none"
       id="path16625"
       inkscape:connector-curvature="0" />
    <path
       d="m 166.46985,974.24532 c -8.27289,-0.47689 -14.71069,-6.34673 -14.26351,-13.00412 0.44992,-6.65739 7.62666,-11.74512 15.90228,-11.26823"
       style="fill:#ffffff;fill-opacity:1;fill-rule:evenodd;stroke:none"
       id="path16627"
       inkscape:connector-curvature="0" />
    <path
       d="m 166.46986,974.2453 c -8.27289,-0.47689 -14.7107,-6.34673 -14.26351,-13.00412 0.44992,-6.65739 7.62666,-11.74512 15.90227,-11.26824"
       style="fill:none;stroke:#c8c8c8;stroke-width:1.01085711;stroke-linecap:butt;stroke-linejoin:miter;stroke-miterlimit:11.5;stroke-opacity:1;stroke-dasharray:none"
       id="path16629"
       inkscape:connector-curvature="0" />
    <path
       d="m 205.49206,978.34113 c -0.22087,-15.65562 11.15775,-30.31933 28.39341,-34.74487 20.43954,-5.2458 41.88254,5.76356 47.49686,24.38682 0.43628,1.44975 0.76621,2.90767 0.99253,4.36286"
       style="fill:#ffffff;fill-opacity:1;fill-rule:evenodd;stroke:none"
       id="path16631"
       inkscape:connector-curvature="0" />
    <path
       d="m 205.49206,978.34111 c -0.22086,-15.65562 11.15776,-30.31933 28.39342,-34.74488 20.43955,-5.24579 41.88253,5.76357 47.49686,24.38683 0.43627,1.44974 0.76621,2.90767 0.99253,4.36286"
       style="fill:none;stroke:#c8c8c8;stroke-width:1.01085711;stroke-linecap:butt;stroke-linejoin:miter;stroke-miterlimit:11.5;stroke-opacity:1;stroke-dasharray:none"
       id="path16633"
       inkscape:connector-curvature="0" />
    <path
       d="m 438.42548,885.74537 c 2.06414,-2.92402 2.60948,-6.80455 1.08797,-10.39622 -2.43496,-5.74994 -9.29542,-8.72845 -15.19606,-6.60016 -2.58221,0.92925 -4.5809,2.69511 -5.80792,4.86701 l -1.07161,-1.66775 c -6.15149,-5.95705 -16.36036,-8.15074 -25.6885,-4.78799 -12.0385,4.34108 -18.35087,16.39686 -13.98812,26.70314"
       style="fill:#ffffff;fill-opacity:1;fill-rule:evenodd;stroke:none"
       id="path16635"
       inkscape:connector-curvature="0" />
    <path
       d="m 438.42549,885.74535 c 2.06414,-2.92402 2.60948,-6.80456 1.08797,-10.39622 -2.43496,-5.74994 -9.29542,-8.72845 -15.19606,-6.60016 -2.58221,0.92926 -4.5809,2.69512 -5.80792,4.86701 l -1.07161,-1.66775 c -6.1515,-5.95705 -16.36036,-8.15074 -25.6885,-4.78799 -12.0385,4.34107 -18.35087,16.39686 -13.98811,26.70313"
       style="fill:none;stroke:#c8c8c8;stroke-width:1.01085711;stroke-linecap:butt;stroke-linejoin:miter;stroke-miterlimit:11.5;stroke-opacity:1;stroke-dasharray:none"
       id="path16637"
       inkscape:connector-curvature="0" />
    <path
       d="m 382.05857,821.47961 c 3.95103,-2.71418 6.39418,-7.12883 6.0697,-11.96859 -0.51808,-7.74742 -7.93204,-13.84345 -16.42309,-13.50554 -3.71379,0.1499 -7.05949,1.50699 -9.60626,3.63527 l -0.61624,-2.379 c -5.16987,-9.37702 -17.2111,-15.78098 -30.63478,-15.24413 -17.32017,0.69217 -30.80929,12.69345 -29.88221,26.58323"
       style="fill:#ffffff;fill-opacity:1;fill-rule:evenodd;stroke:none"
       id="path16639"
       inkscape:connector-curvature="0" />
    <path
       d="m 382.05858,821.47959 c 3.95102,-2.71418 6.39418,-7.12883 6.0697,-11.96859 -0.51808,-7.74742 -7.93205,-13.84344 -16.42309,-13.50554 -3.71379,0.1499 -7.05949,1.50699 -9.60626,3.63527 l -0.61624,-2.379 c -5.16987,-9.37703 -17.2111,-15.78098 -30.63478,-15.24413 -17.32018,0.69217 -30.80929,12.69345 -29.88221,26.58323"
       style="fill:none;stroke:#c8c8c8;stroke-width:3.03257132;stroke-linecap:butt;stroke-linejoin:miter;stroke-miterlimit:14.30000019;stroke-opacity:1;stroke-dasharray:none"
       id="path16641"
       inkscape:connector-curvature="0" />
    <path
       d="m 381.92497,822.17724 c 3.94829,-2.71419 6.39144,-7.12884 6.06696,-11.97132 -0.51535,-7.7447 -7.93205,-13.84072 -16.42308,-13.50281 -3.7138,0.14988 -7.0595,1.50698 -9.60353,3.63527 l -0.61897,-2.38173 c -5.16987,-9.3743 -17.21111,-15.78099 -30.63478,-15.24414 -17.31746,0.69217 -30.80929,12.69345 -29.87949,26.58323"
       style="fill:#ffffff;fill-opacity:1;fill-rule:evenodd;stroke:none"
       id="path16643"
       inkscape:connector-curvature="0" />
    <path
       d="m 381.92498,822.17722 c 3.94829,-2.71419 6.39144,-7.12884 6.06696,-11.97132 -0.51535,-7.7447 -7.93205,-13.84072 -16.42308,-13.50281 -3.71381,0.14988 -7.0595,1.50698 -9.60353,3.63527 l -0.61897,-2.38173 c -5.16988,-9.3743 -17.21111,-15.78099 -30.63479,-15.24414 -17.31745,0.69217 -30.80928,12.69345 -29.87948,26.58324"
       style="fill:none;stroke:#c8c8c8;stroke-width:1.01085711;stroke-linecap:butt;stroke-linejoin:miter;stroke-miterlimit:11.5;stroke-opacity:1;stroke-dasharray:none"
       id="path16645"
       inkscape:connector-curvature="0" />
    <path
       d="m 462.8815,854.89736 c 5.10989,-3.51264 8.27016,-9.22441 7.85026,-15.48668 -0.66805,-10.02287 -10.25795,-17.90927 -21.24394,-17.47053 -4.8045,0.19349 -9.13181,1.94844 -12.4257,4.7035 l -0.79893,-3.07934 c -6.68593,-12.1321 -22.26374,-20.41909 -39.62753,-19.72419 -22.40552,0.89655 -39.85658,16.4241 -38.65682,34.39334"
       style="fill:#ffffff;fill-opacity:1;fill-rule:evenodd;stroke:none"
       id="path16647"
       inkscape:connector-curvature="0" />
    <path
       d="m 462.88153,854.89734 c 5.10987,-3.51263 8.27014,-9.22441 7.85024,-15.48667 -0.66805,-10.02288 -10.25795,-17.90928 -21.24394,-17.47054 -4.8045,0.19349 -9.13181,1.94844 -12.4257,4.7035 l -0.79893,-3.07934 c -6.68593,-12.1321 -22.26374,-20.41909 -39.62753,-19.72419 -22.40552,0.89655 -39.85658,16.4241 -38.65682,34.39334"
       style="fill:none;stroke:#c8c8c8;stroke-width:3.03257132;stroke-linecap:butt;stroke-linejoin:miter;stroke-miterlimit:14.30000019;stroke-opacity:1;stroke-dasharray:none"
       id="path16649"
       inkscape:connector-curvature="0" />
    <path
       d="m 462.70699,855.79665 c 5.10989,-3.50992 8.27016,-9.22169 7.85025,-15.48668 -0.66805,-10.02015 -10.26067,-17.90656 -21.24393,-17.46782 -4.80449,0.19076 -9.13454,1.94845 -12.42569,4.70078 l -0.79895,-3.07934 c -6.68593,-12.12937 -22.26372,-20.41636 -39.62753,-19.72147 -22.40552,0.89656 -39.85657,16.42411 -38.65681,34.39334"
       style="fill:#ffffff;fill-opacity:1;fill-rule:evenodd;stroke:none"
       id="path16651"
       inkscape:connector-curvature="0" />
    <path
       d="m 462.707,855.79662 c 5.10989,-3.50991 8.27016,-9.22168 7.85025,-15.48667 -0.66804,-10.02015 -10.26068,-17.90655 -21.24393,-17.46781 -4.80449,0.19075 -9.13454,1.94843 -12.42569,4.70077 l -0.79895,-3.07934 c -6.68593,-12.12937 -22.26372,-20.41636 -39.62753,-19.72147 -22.40551,0.89656 -39.85658,16.42411 -38.65681,34.39334"
       style="fill:none;stroke:#c8c8c8;stroke-width:1.01085711;stroke-linecap:butt;stroke-linejoin:miter;stroke-miterlimit:11.5;stroke-opacity:1;stroke-dasharray:none"
       id="path16653"
       inkscape:connector-curvature="0" />
    <path
       d="m 438.42548,885.74537 c 2.06414,-2.92402 2.60948,-6.80455 1.08797,-10.39622 -2.43496,-5.74994 -9.29542,-8.72845 -15.19606,-6.60016 -2.58221,0.92925 -4.5809,2.69511 -5.80792,4.86701 l -1.07161,-1.66775 c -6.15149,-5.95705 -16.36036,-8.15074 -25.6885,-4.78799 -12.0385,4.34108 -18.35087,16.39686 -13.98812,26.70314"
       style="fill:#ffffff;fill-opacity:1;fill-rule:evenodd;stroke:none"
       id="path16655"
       inkscape:connector-curvature="0" />
    <path
       d="m 438.42549,885.74535 c 2.06414,-2.92402 2.60948,-6.80456 1.08797,-10.39622 -2.43496,-5.74994 -9.29542,-8.72845 -15.19606,-6.60016 -2.58221,0.92926 -4.5809,2.69512 -5.80792,4.86701 l -1.07161,-1.66775 c -6.1515,-5.95705 -16.36036,-8.15074 -25.6885,-4.78799 -12.0385,4.34107 -18.35087,16.39686 -13.98811,26.70313"
       style="fill:none;stroke:#c8c8c8;stroke-width:1.01085711;stroke-linecap:butt;stroke-linejoin:miter;stroke-miterlimit:11.5;stroke-opacity:1;stroke-dasharray:none"
       id="path16657"
       inkscape:connector-curvature="0" />
    <path
       d="m 250.67666,922.39507 21.88744,-232.06305 25.65033,2.23185 22.52004,225.37023"
       style="fill:#ffffff;fill-opacity:1;fill-rule:evenodd;stroke:none"
       id="path16659"
       inkscape:connector-curvature="0" />
    <path
       d="M 250.67667,922.39505 272.5641,690.332 l 25.65034,2.23186 22.52004,225.37022"
       style="fill:none;stroke:#c8c8c8;stroke-width:3.03257132;stroke-linecap:butt;stroke-linejoin:miter;stroke-miterlimit:14.30000019;stroke-opacity:1;stroke-dasharray:none"
       id="path16661"
       inkscape:connector-curvature="0" />
    <path
       d="m 398.29351,920.16596 21.88744,-232.06578 25.65306,2.23184 22.51731,225.37024"
       style="fill:#ffffff;fill-opacity:1;fill-rule:evenodd;stroke:none"
       id="path16663"
       inkscape:connector-curvature="0" />
    <path
       d="m 398.29352,920.16594 21.88744,-232.06578 25.65306,2.23184 22.51731,225.37023"
       style="fill:none;stroke:#c8c8c8;stroke-width:3.03257132;stroke-linecap:butt;stroke-linejoin:miter;stroke-miterlimit:14.30000019;stroke-opacity:1;stroke-dasharray:none"
       id="path16665"
       inkscape:connector-curvature="0" />
    <path
       d="m 466.80526,859.70443 c -1.38789,-9.67134 5.93609,-18.66413 16.22131,-19.92312 10.28794,-1.25627 19.89693,5.66545 21.28483,15.33679"
       style="fill:#ffffff;fill-opacity:1;fill-rule:evenodd;stroke:none"
       id="path16667"
       inkscape:connector-curvature="0" />
    <path
       d="m 466.80527,859.70441 c -1.38789,-9.67134 5.9361,-18.66414 16.22131,-19.92312 10.28794,-1.25628 19.89693,5.66545 21.28483,15.33679"
       style="fill:none;stroke:#c8c8c8;stroke-width:1.01085711;stroke-linecap:butt;stroke-linejoin:miter;stroke-miterlimit:11.5;stroke-opacity:1;stroke-dasharray:none"
       id="path16669"
       inkscape:connector-curvature="0" />
    <path
       d="m 294.05616,974.42519 c 3.09484,-10.63603 15.43602,-16.96368 27.33817,-14.01514 11.90218,2.94855 19.15254,14.12958 16.06043,24.7656"
       style="fill:#ffffff;fill-opacity:1;fill-rule:evenodd;stroke:none"
       id="path16671"
       inkscape:connector-curvature="0" />
    <path
       d="m 294.05617,974.42515 c 3.09483,-10.63601 15.43601,-16.96366 27.33817,-14.01512 11.90217,2.94855 19.15254,14.12958 16.06043,24.7656"
       style="fill:none;stroke:#c8c8c8;stroke-width:1.01085711;stroke-linecap:butt;stroke-linejoin:miter;stroke-miterlimit:11.5;stroke-opacity:1;stroke-dasharray:none"
       id="path16673"
       inkscape:connector-curvature="0" />
    <path
       d="m 268.86666,971.98351 c 2.13502,-7.34139 10.65331,-11.70971 18.86894,-9.67408 8.21564,2.03565 13.21919,9.7531 11.08143,17.09449"
       style="fill:#ffffff;fill-opacity:1;fill-rule:evenodd;stroke:none"
       id="path16675"
       inkscape:connector-curvature="0" />
    <path
       d="m 268.86667,971.98348 c 2.13502,-7.34138 10.65331,-11.7097 18.86895,-9.67407 8.21563,2.03565 13.21918,9.7531 11.08142,17.09449"
       style="fill:none;stroke:#c8c8c8;stroke-width:1.01085711;stroke-linecap:butt;stroke-linejoin:miter;stroke-miterlimit:11.5;stroke-opacity:1;stroke-dasharray:none"
       id="path16677"
       inkscape:connector-curvature="0" />
    <path
       d="m 390.31237,946.37313 c -16.65212,0 -21.36663,-3.99226 -26.41654,-9.46151 -10.10251,-10.9385 -8.45012,-27.78228 3.65927,-37.30646 7.5694,-5.95159 17.54923,-7.73107 26.43563,-5.55645"
       style="fill:#ffffff;fill-opacity:1;fill-rule:evenodd;stroke:none"
       id="path16679"
       inkscape:connector-curvature="0" />
    <path
       d="m 390.31238,946.3731 c -16.65212,0 -21.36664,-3.99225 -26.41654,-9.4615 -10.10251,-10.93851 -8.45012,-27.78228 3.65927,-37.30646 7.5694,-5.95159 17.54923,-7.73107 26.43563,-5.55645"
       style="fill:none;stroke:#c8c8c8;stroke-width:1.01085711;stroke-linecap:butt;stroke-linejoin:miter;stroke-miterlimit:11.5;stroke-opacity:1;stroke-dasharray:none"
       id="path16681"
       inkscape:connector-curvature="0" />
    <path
       d="m 83.999977,1021.4139 c -2.454059,-4.2702 -3.023945,-9.3689 -1.112504,-14.2468 3.828318,-9.75852 16.23493,-15.19236 27.485407,-12.03942 7.03224,1.97295 12.05486,6.86182 13.89814,12.63622"
       style="fill:#ffffff;fill-opacity:1;fill-rule:evenodd;stroke:none"
       id="path16731"
       inkscape:connector-curvature="0" />
    <path
       d="m 83.999977,1021.4138 c -2.454048,-4.2702 -3.023935,-9.3688 -1.112504,-14.2467 3.828329,-9.75854 16.23494,-15.19238 27.485417,-12.03946 7.03224,1.97297 12.05486,6.86176 13.89814,12.63626"
       style="fill:none;stroke:#c8c8c8;stroke-width:3.03257132;stroke-linecap:butt;stroke-linejoin:miter;stroke-miterlimit:14.30000019;stroke-opacity:1;stroke-dasharray:none"
       id="path16733"
       inkscape:connector-curvature="0" />
    <path
       d="m 87.209327,1020.3129 c 0.550801,-2.4498 -0.245399,-5.1258 -2.385882,-7.0743 -3.4275,-3.1175 -9.093638,-3.2674 -12.551124,-0.3325 -1.510615,1.2836 -2.366798,2.9595 -2.563125,4.6981 l -1.248844,-0.8066 c -6.072417,-2.2809 -13.827231,-1.0437 -19.291594,3.5971 -7.051317,5.987 -7.795714,15.5139 -1.64967,21.1058"
       style="fill:#ffffff;fill-opacity:1;fill-rule:evenodd;stroke:none"
       id="path16735"
       inkscape:connector-curvature="0" />
    <path
       d="m 87.209338,1020.3129 c 0.550801,-2.4498 -0.24541,-5.1259 -2.385881,-7.0743 -3.427502,-3.1175 -9.093639,-3.2674 -12.551136,-0.3325 -1.510604,1.2835 -2.366798,2.9595 -2.563125,4.6981 l -1.248833,-0.8066 c -6.072422,-2.2809 -13.827235,-1.0438 -19.291597,3.5971 -7.051318,5.987 -7.795715,15.5139 -1.64967,21.1058"
       style="fill:none;stroke:#c8c8c8;stroke-width:3.03257132;stroke-linecap:butt;stroke-linejoin:miter;stroke-miterlimit:14.30000019;stroke-opacity:1;stroke-dasharray:none"
       id="path16737"
       inkscape:connector-curvature="0" />
    <path
       d="m 87.441108,1020.6536 c 0.548073,-2.4499 -0.24541,-5.1259 -2.385893,-7.0744 -3.427491,-3.1175 -9.093639,-3.2701 -12.551126,-0.3351 -1.513331,1.2862 -2.366797,2.9594 -2.563123,4.7007 l -1.248833,-0.8066 c -6.072426,-2.2809 -13.827241,-1.0437 -19.291602,3.5971 -7.051318,5.987 -7.795715,15.514 -1.64967,21.1057"
       style="fill:#ffffff;fill-opacity:1;fill-rule:evenodd;stroke:none"
       id="path16739"
       inkscape:connector-curvature="0" />
    <path
       d="m 87.441108,1020.6536 c 0.548073,-2.4499 -0.245399,-5.1259 -2.385882,-7.0744 -3.427502,-3.1175 -9.093638,-3.2701 -12.551126,-0.3352 -1.513342,1.2863 -2.366808,2.9595 -2.563124,4.7008 l -1.248843,-0.8066 c -6.07242,-2.2809 -13.827233,-1.0437 -19.291595,3.5971 -7.051319,5.987 -7.795714,15.5139 -1.649671,21.1057"
       style="fill:none;stroke:#c8c8c8;stroke-width:1.01085711;stroke-linecap:butt;stroke-linejoin:miter;stroke-miterlimit:11.5;stroke-opacity:1;stroke-dasharray:none"
       id="path16741"
       inkscape:connector-curvature="0" />
    <path
       d="m 85.150651,1022.5857 c -2.456777,-4.2703 -3.951023,-10.1973 -2.039592,-15.0752 3.828328,-9.75857 16.23494,-15.19512 27.485421,-12.03946 7.03223,1.97023 12.05486,6.86176 13.89812,12.63626"
       style="fill:#ffffff;fill-opacity:1;fill-rule:evenodd;stroke:none"
       id="path16743"
       inkscape:connector-curvature="0" />
    <path
       d="m 85.150661,1022.5856 c -2.456787,-4.2702 -3.951033,-10.1972 -2.039591,-15.0752 3.828317,-9.75849 16.23494,-15.19504 27.48542,-12.03939 7.03222,1.97024 12.05486,6.86179 13.89812,12.63619"
       style="fill:none;stroke:#c8c8c8;stroke-width:1.01085711;stroke-linecap:butt;stroke-linejoin:miter;stroke-miterlimit:11.5;stroke-opacity:1;stroke-dasharray:none"
       id="path16745"
       inkscape:connector-curvature="0" />
    <path
       d="m 374.41829,368.80432 c 0,0 -4.48546,-2.65424 -4.07373,-8.46413 0.41174,-5.80716 2.98577,-9.12904 8.71462,-7.55395 5.73159,1.57238 7.89115,4.0604 7.89115,4.0604 0,0 -5.31711,-7.38226 -3.57746,-15.43218 1.73964,-8.04991 8.96275,-11.03933 15.68959,-7.0607 6.72683,3.98135 7.643,7.5485 7.643,7.5485 m 45.27733,-6.70099 c 0,0 -13.44823,8.3878 -25.90392,2.83408 -12.45842,-5.55373 -26.58286,-20.56624 -12.31117,-40.57384 14.2717,-20.00486 37.69701,-4.33289 37.69701,-4.33289"
       style="fill:none;stroke:#000000;stroke-width:1.21302855;stroke-linecap:butt;stroke-linejoin:miter;stroke-miterlimit:14.30000019;stroke-opacity:1;stroke-dasharray:none"
       id="path33169"
       inkscape:connector-curvature="0" />
    <path
       d="m 266.81889,671.49895 c 0,0 -3.90195,4.53999 -5.07172,14.8817 -1.16976,10.3417 3.40296,18.36982 2.91488,28.09566 -0.48809,9.72583 6.26329,-3.58622 6.26329,-3.58622 0,0 -2.63402,7.0062 2.33407,18.31532 7.00497,15.94994 4.95992,30.79894 4.95992,30.79894 l 3.14938,-10.89218 c 0,0 4.41184,2.82048 4.27822,18.41342 -0.13088,15.59296 0.60807,52.67868 0.60807,52.67868 0,0 8.08747,-44.44346 10.55516,-54.71977 2.46769,-10.2763 5.35529,-15.9799 5.35529,-15.9799 0,0 1.08525,2.71689 2.98305,5.34934 2.43496,3.37093 -0.85075,-4.40101 3.89648,-12.80519 2.85762,-5.05504 1.3661,-14.23041 1.3661,-14.23041 l 3.76288,2.78776 c 0,0 3.73289,-9.56233 2.79217,-16.75929 -0.94072,-7.19695 0.38992,-7.78012 0.38992,-7.78012 l 1.91417,0.74668 c 0,0 3.60474,-6.97079 2.69673,-14.81359 -0.908,-7.84553 -3.76288,-15.78917 -3.76288,-15.78917"
       style="fill:#ffffff;fill-opacity:1;fill-rule:evenodd;stroke:none"
       id="path33171"
       inkscape:connector-curvature="0" />
    <path
       d="m 266.81889,671.49893 c 0,0 -3.90194,4.53999 -5.07171,14.88169 -1.16977,10.34171 3.40296,18.36983 2.91487,28.09567 -0.48808,9.72583 6.26329,-3.58622 6.26329,-3.58622 0,0 -2.63402,7.0062 2.33408,18.31532 7.00497,15.94994 4.95992,30.79894 4.95992,30.79894 l 3.14937,-10.89218 c 0,0 4.41185,2.82047 4.27823,18.41342 -0.13088,15.59296 0.60807,52.67868 0.60807,52.67868 0,0 8.08747,-44.44346 10.55516,-54.71977 2.46769,-10.27631 5.35529,-15.97991 5.35529,-15.97991 0,0 1.08524,2.71691 2.98304,5.34935 2.43497,3.37093 -0.85074,-4.40102 3.89649,-12.80519 2.85762,-5.05504 1.3661,-14.23041 1.3661,-14.23041 l 3.76288,2.78776 c 0,0 3.73289,-9.56233 2.79217,-16.75929 -0.94072,-7.19695 0.38992,-7.78012 0.38992,-7.78012 l 1.91416,0.74668 c 0,0 3.60475,-6.97078 2.69674,-14.81359 -0.908,-7.84553 -3.76289,-15.78916 -3.76289,-15.78916"
       style="fill:none;stroke:#000000;stroke-width:2.4260571;stroke-linecap:butt;stroke-linejoin:miter;stroke-miterlimit:14.30000019;stroke-opacity:1;stroke-dasharray:none"
       id="path33173"
       inkscape:connector-curvature="0" />
    <path
       d="m 309.31493,676.3387 c 0,0 2.08594,2.38173 2.22501,7.39044 0.13906,5.00598 -3.02666,8.60038 -3.26116,13.27662 -0.2345,4.67625 -3.5502,-2.0547 -3.5502,-2.0547 0,0 1.68511,4.51001 -1.89508,9.64952 -5.0499,7.24873 -3.60747,13.42924 -3.60747,13.42924 l -3.57472,-6.76912 c 0,0 -2.02052,2.51254 -2.784,9.97383 -0.76622,7.46401 -2.34498,14.26582 -2.34498,14.26582 0,0 -3.29661,-10.79679 -4.21552,-15.84365 -0.91891,-5.04687 -1.08524,-8.48865 -1.08524,-8.48865 0,0 -2.04505,1.79856 -3.32389,2.954 -1.63603,1.48244 0.74713,-2.05745 -1.6333,-6.33311 -1.43426,-2.57248 -0.0464,-6.87812 -0.0464,-6.87812 l -2.39952,1.13091 c 0,0 -1.71239,-4.77436 -0.76076,-8.16437 0.9489,-3.39 0.18541,-3.74154 0.18541,-3.74154 l -1.1834,0.25342 c 0,0 -1.77509,-3.52626 -0.80983,-7.22964 0.968,-3.70068 3.10302,-7.34412 3.10302,-7.34412"
       style="fill:#ffffff;fill-opacity:1;fill-rule:evenodd;stroke:none"
       id="path33175"
       inkscape:connector-curvature="0" />
    <path
       d="m 309.31494,676.33868 c 0,0 2.08594,2.38173 2.22501,7.39044 0.13906,5.00599 -3.02666,8.60038 -3.26116,13.27663 -0.23451,4.67624 -3.5502,-2.05472 -3.5502,-2.05472 0,0 1.68511,4.51002 -1.89508,9.64954 -5.0499,7.24872 -3.60747,13.42923 -3.60747,13.42923 l -3.57472,-6.76912 c 0,0 -2.02051,2.51254 -2.784,9.97383 -0.76621,7.46401 -2.34498,14.26583 -2.34498,14.26583 0,0 -3.29661,-10.7968 -4.21553,-15.84366 -0.9189,-5.04687 -1.08523,-8.48865 -1.08523,-8.48865 0,0 -2.04505,1.79856 -3.32389,2.954 -1.63603,1.48245 0.74713,-2.05745 -1.6333,-6.33311 -1.43427,-2.57249 -0.0464,-6.87812 -0.0464,-6.87812 l -2.39952,1.13091 c 0,0 -1.71239,-4.77436 -0.76075,-8.16437 0.94889,-3.39001 0.18541,-3.74153 0.18541,-3.74153 l -1.18341,0.25342 c 0,0 -1.77509,-3.52627 -0.80983,-7.22965 0.96799,-3.70068 3.10301,-7.34412 3.10301,-7.34412"
       style="fill:none;stroke:#000000;stroke-width:2.4260571;stroke-linecap:round;stroke-linejoin:round;stroke-miterlimit:14.30000019;stroke-opacity:1;stroke-dasharray:none"
       id="path33177"
       inkscape:connector-curvature="0" />
    <path
       d="m 454.78312,649.28675 c 0,0 3.83924,4.5945 4.86176,14.95256 1.02525,10.35533 -3.65927,18.32076 -3.30752,28.05206 0.35175,9.73128 -6.21422,-3.67343 -6.21422,-3.67343 0,0 2.53587,7.04163 -2.59039,18.28262 -7.22855,15.85184 -5.39074,30.72537 -5.39074,30.72537 l -2.99666,-10.93579 c 0,0 -4.45003,2.76052 -4.53728,18.35348 -0.0872,15.59295 -1.34973,52.66506 -1.34973,52.66506 0,0 -7.46033,-44.55247 -9.7835,-54.86148 -2.32317,-10.30901 -5.13171,-16.05622 -5.13171,-16.05622 0,0 -1.12068,2.70329 -3.05666,5.30848 -2.48131,3.33823 0.91074,-4.3874 -3.71652,-12.85698 -2.78399,-5.09592 -1.16431,-14.24948 -1.16431,-14.24948 l -3.80379,2.73599 c 0,0 -3.59656,-9.61411 -2.55767,-16.79745 1.04161,-7.18333 -0.28085,-7.78557 -0.28085,-7.78557 l -1.92507,0.71943 c 0,0 -3.50385,-7.01983 -2.48679,-14.85175 1.01708,-7.83189 3.98376,-15.73465 3.98376,-15.73465"
       style="fill:#ffffff;fill-opacity:1;fill-rule:evenodd;stroke:none"
       id="path33179"
       inkscape:connector-curvature="0" />
    <path
       d="m 454.78314,649.28673 c 0,0 3.83923,4.5945 4.86175,14.95256 1.02525,10.35533 -3.65927,18.32077 -3.30752,28.05206 0.35174,9.73128 -6.21422,-3.67343 -6.21422,-3.67343 0,0 2.53587,7.04163 -2.59038,18.28262 -7.22856,15.85184 -5.39075,30.72536 -5.39075,30.72536 l -2.99666,-10.93577 c 0,0 -4.45003,2.76051 -4.53728,18.35347 -0.0872,15.59295 -1.34973,52.66506 -1.34973,52.66506 0,0 -7.46033,-44.55248 -9.7835,-54.86148 -2.32317,-10.30901 -5.13171,-16.05622 -5.13171,-16.05622 0,0 -1.12068,2.70328 -3.05665,5.30847 -2.48133,3.33824 0.91073,-4.38738 -3.71653,-12.85697 -2.78399,-5.09592 -1.16431,-14.24948 -1.16431,-14.24948 l -3.80379,2.73599 c 0,0 -3.59656,-9.61411 -2.55767,-16.79744 1.04161,-7.18334 -0.28086,-7.78558 -0.28086,-7.78558 l -1.92506,0.71943 c 0,0 -3.50385,-7.01984 -2.48679,-14.85174 1.01707,-7.8319 3.98375,-15.73466 3.98375,-15.73466"
       style="fill:none;stroke:#000000;stroke-width:2.4260571;stroke-linecap:butt;stroke-linejoin:miter;stroke-miterlimit:14.30000019;stroke-opacity:1;stroke-dasharray:none"
       id="path33181"
       inkscape:connector-curvature="0" />
    <path
       d="m 412.32525,653.42616 c 0,0 -2.11867,2.35175 -2.32863,7.35774 -0.20995,5.00325 2.90669,8.64125 3.07575,13.32023 0.16906,4.67897 3.57748,-2.00294 3.57748,-2.00294 0,0 -1.74785,4.4855 1.76145,9.67405 4.94629,7.31688 3.41932,13.4783 3.41932,13.4783 l 3.66745,-6.72008 c 0,0 1.98506,2.54251 2.64492,10.01471 0.6626,7.47218 2.14321,14.29581 2.14321,14.29581 0,0 3.44932,-10.75047 4.43912,-15.78371 0.98979,-5.03323 1.20248,-8.4723 1.20248,-8.4723 0,0 2.0205,1.82581 3.28298,3.00032 1.61696,1.50425 -0.71712,-2.06834 1.72329,-6.30858 1.46971,-2.55341 0.14179,-6.87812 0.14179,-6.87812 l 2.38317,1.16362 c 0,0 1.78055,-4.74984 0.878,-8.15075 -0.90527,-3.40362 -0.13633,-3.74426 -0.13633,-3.74426 l 1.18066,0.26978 c 0,0 1.82419,-3.50173 0.91074,-7.21604 -0.91619,-3.71701 -2.99941,-7.39044 -2.99941,-7.39044"
       style="fill:#ffffff;fill-opacity:1;fill-rule:evenodd;stroke:none"
       id="path33183"
       inkscape:connector-curvature="0" />
    <path
       d="m 412.32526,653.42614 c 0,0 -2.11867,2.35175 -2.32863,7.35774 -0.20995,5.00326 2.90669,8.64125 3.07575,13.32023 0.16906,4.67898 3.57747,-2.00295 3.57747,-2.00295 0,0 -1.74784,4.48551 1.76146,9.67407 4.94629,7.31687 3.41932,13.47828 3.41932,13.47828 l 3.66745,-6.72007 c 0,0 1.98506,2.54251 2.64492,10.0147 0.6626,7.47219 2.14321,14.29582 2.14321,14.29582 0,0 3.44932,-10.75047 4.43912,-15.78371 0.9898,-5.03325 1.20248,-8.4723 1.20248,-8.4723 0,0 2.02051,1.8258 3.28298,3.00032 1.61696,1.50425 -0.71712,-2.06834 1.72329,-6.30858 1.46971,-2.55341 0.1418,-6.87812 0.1418,-6.87812 l 2.38316,1.16362 c 0,0 1.78055,-4.74984 0.878,-8.15075 -0.90527,-3.40362 -0.13633,-3.74427 -0.13633,-3.74427 l 1.18066,0.26979 c 0,0 1.82419,-3.50174 0.91074,-7.21603 -0.91619,-3.71702 -2.99941,-7.39044 -2.99941,-7.39044"
       style="fill:none;stroke:#000000;stroke-width:2.4260571;stroke-linecap:round;stroke-linejoin:round;stroke-miterlimit:14.30000019;stroke-opacity:1;stroke-dasharray:none"
       id="path33185"
       inkscape:connector-curvature="0" />
    <path
       d="m 410.20385,585.65321 15.61598,-295.732 c 0,0 0.31084,-28.41176 -4.96538,-41.00712 -5.27621,-12.59809 -20.95763,-53.22098 -37.54704,-54.09573 l -2.36953,-0.12535 c -16.59213,-0.87476 -36.46452,37.87327 -43.03593,49.84459 -6.57414,11.97131 -9.25724,40.25772 -9.25724,40.25772 l -15.61597,295.732 c 0,0 -4.76087,26.32708 46.81245,29.04672 51.57605,2.71964 50.36266,-23.92083 50.36266,-23.92083"
       style="fill:#ffffff;fill-opacity:1;fill-rule:evenodd;stroke:none"
       id="path33187"
       inkscape:connector-curvature="0" />
    <path
       d="m 410.20386,585.6532 15.61598,-295.732 c 0,0 0.31084,-28.41176 -4.96538,-41.00712 -5.27621,-12.59809 -20.95763,-53.22098 -37.54704,-54.09574 l -2.36953,-0.12534 c -16.59213,-0.87477 -36.46452,37.87326 -43.03594,49.84458 -6.57414,11.97132 -9.25724,40.25773 -9.25724,40.25773 l -15.61597,295.732 c 0,0 -4.76086,26.32708 46.81246,29.04671 51.57605,2.71964 50.36266,-23.92082 50.36266,-23.92082 z"
       style="fill:none;stroke:#000000;stroke-width:2.4260571;stroke-linecap:butt;stroke-linejoin:miter;stroke-miterlimit:14.30000019;stroke-opacity:1;stroke-dasharray:none"
       id="path33189"
       inkscape:connector-curvature="0" />
    <path
       d="m 330.19349,264.73048 c 0,0 20.90855,-15.51937 50.36812,-13.96607 31.81818,1.67865 45.08371,18.99931 45.08371,18.99931 m -96.24803,14.85172 c 0,0 20.69314,-11.3854 50.16088,-9.94384 31.82637,1.5533 45.65906,16.20065 45.65906,16.20065 m -99.91822,66.13789 c 0,0 20.65769,-9.33343 50.12543,-7.89458 31.82639,1.55331 45.35368,12.55721 45.35368,12.55721"
       style="fill:none;stroke:#000000;stroke-width:1.21302855;stroke-linecap:butt;stroke-linejoin:miter;stroke-miterlimit:11.5;stroke-opacity:1;stroke-dasharray:none"
       id="path33191"
       inkscape:connector-curvature="0" />
    <path
       d="m 420.38001,285.97254 -4.35458,72.97241 m 1.69875,-74.25865 -4.04101,72.44647 m 1.09614,-73.47927 -4.08191,72.99148 m 0.89982,-74.58839 -4.04373,72.44373 m 0.84256,-73.76811 -4.12282,73.53649 m 0.68714,-75.42771 -3.9074,74.37583 m -3.41387,-75.7193 -4.39275,73.52016 m 7.9075,-72.72171 -4.12008,73.53922 m -2.92851,-76.31609 -4.07918,74.44669 m 0.99525,-74.14965 -4.56726,74.17145 m 1.03616,-74.34314 -4.31369,74.10877 m 0.7853,-74.28044 -4.59181,73.73816 m 0.61624,-74.41671 -4.68724,73.58828 m 47.67683,-60.3062 -4.3573,72.0595 m -84.22045,-78.4362 -5.99608,72.87975 m 8.81007,-73.84988 -6.23058,72.32111 m 9.30087,-73.00511 -6.27148,72.86613 m 9.65263,-74.08697 -6.23059,72.32111 m 9.59263,-73.26672 -6.30964,73.41387 m 9.98527,-74.89359 -6.64231,74.2205 m 14.09173,-74.71374 -6.03697,73.4275 m 2.43769,-73.03781 -6.30691,73.41387 m 13.69089,-75.35959 -6.47597,74.31043 m 9.49447,-73.65913 -5.95517,74.08969 m 9.48082,-73.85534 -6.19786,73.99977 m 9.72352,-73.76541 -5.87065,73.66458 m 9.88166,-73.81991 -5.75339,73.52834 m -38.73863,-65.35307 -5.86246,71.9723"
       style="fill:none;stroke:#000000;stroke-width:0.60651428;stroke-linecap:butt;stroke-linejoin:miter;stroke-miterlimit:14.30000019;stroke-opacity:1;stroke-dasharray:none"
       id="path33193"
       inkscape:connector-curvature="0" />
    <path
       d="m 320.59542,439.39773 c 0,0 20.25686,-3.17473 49.71642,-1.62142 31.81818,1.67864 45.7354,6.65739 45.7354,6.65739"
       style="fill:none;stroke:#000000;stroke-width:1.21302855;stroke-linecap:butt;stroke-linejoin:miter;stroke-miterlimit:11.5;stroke-opacity:1;stroke-dasharray:none"
       id="path33195"
       inkscape:connector-curvature="0" />
    <path
       d="m 382.93114,186.62127 0.45263,-8.55949"
       style="fill:none;stroke:#000000;stroke-width:2.4260571;stroke-linecap:round;stroke-linejoin:round;stroke-miterlimit:11.5;stroke-opacity:1;stroke-dasharray:none"
       id="path33197"
       inkscape:connector-curvature="0" />
    <path
       d="m 379.23914,186.39511 7.16038,0.37607 -0.36265,6.85086 -7.16039,-0.37878"
       style="fill:#ffffff;fill-opacity:1;fill-rule:evenodd;stroke:none"
       id="path33199"
       inkscape:connector-curvature="0" />
    <path
       d="m 379.23915,186.3951 7.16038,0.37607 -0.36265,6.85086 -7.16039,-0.37878 0.36266,-6.84815 z"
       style="fill:none;stroke:#000000;stroke-width:2.4260571;stroke-linecap:round;stroke-linejoin:round;stroke-miterlimit:11.5;stroke-opacity:1;stroke-dasharray:none"
       id="path33201"
       inkscape:connector-curvature="0" />
    <path
       d="m 408.43967,585.59053 c 0,0 -20.33593,4.64354 -49.79822,3.09024 -31.81819,-1.67866 -45.65906,-8.12349 -45.65906,-8.12349 m 72.44643,-383.45803 c 0,0 4.11735,38.79435 3.64018,59.54045 -0.4799,20.7461 -0.94889,29.62443 -0.94889,29.62443 l -15.93774,301.8362"
       style="fill:none;stroke:#000000;stroke-width:1.21302855;stroke-linecap:butt;stroke-linejoin:miter;stroke-miterlimit:11.5;stroke-opacity:1;stroke-dasharray:none"
       id="path33203"
       inkscape:connector-curvature="0" />
    <path
       d="m 411.62175,567.68671 1.33883,5.21582 -0.35721,17.03725 -2.00142,4.15031 1.65241,4.91878 0.0573,7.07433 -2.07775,5.55647 0.65713,6.58108 -1.00071,6.19412 2.42952,5.60823 -9.21089,21.53093 c 0,0 12.67656,-10.19457 32.21356,-8.81021 19.53428,1.38433 23.23991,9.32797 23.23991,9.32797 l -6.25785,-20.06755 1.77782,-5.99792 -0.85619,-7.00348 1.22158,-6.41758 -2.03686,-6.17232 0.48262,-6.79092 2.21137,-4.52909 -2.45677,-4.01951 1.42608,-22.65366 c 0,0 2.9885,-3.48266 3.29115,-7.72835 0.29994,-4.24569 -2.18683,-5.27577 -2.18683,-5.27577 l 0.4799,-6.79091 5.94972,-240.18654 -14.33713,-38.55727 c 0,0 -1.21885,-6.91083 -4.61635,-7.15336 -3.3975,-0.23981 -5.75885,8.97916 -5.75885,8.97916 l -15.26967,34.75305 -10.00437,261.22694"
       style="fill:#ffffff;fill-opacity:1;fill-rule:evenodd;stroke:none"
       id="path33205"
       inkscape:connector-curvature="0" />
    <path
       d="m 411.62176,567.6867 1.33883,5.21582 -0.35721,17.03725 -2.00141,4.1503 1.6524,4.91878 0.0573,7.07433 -2.07775,5.55646 0.65713,6.58109 -1.00071,6.19413 2.42952,5.60822 -9.21089,21.53093 c 0,0 12.67656,-10.19456 32.21356,-8.81021 19.53428,1.38433 23.23991,9.32796 23.23991,9.32796 l -6.25785,-20.06754 1.77782,-5.99791 -0.85619,-7.00348 1.22158,-6.41759 -2.03686,-6.17232 0.48262,-6.79092 2.21137,-4.52909 -2.45677,-4.0195 1.42609,-22.65367 c 0,0 2.98849,-3.48266 3.29114,-7.72835 0.29994,-4.24568 -2.18683,-5.27576 -2.18683,-5.27576 l 0.4799,-6.79093 5.94972,-240.18652 -14.33713,-38.55727 c 0,0 -1.21885,-6.91083 -4.61635,-7.15337 -3.3975,-0.2398 -5.75885,8.97917 -5.75885,8.97917 l -15.26967,34.75304 -10.00437,261.22695 z"
       style="fill:none;stroke:#000000;stroke-width:2.4260571;stroke-linecap:round;stroke-linejoin:round;stroke-miterlimit:11.5;stroke-opacity:1;stroke-dasharray:none"
       id="path33207"
       inkscape:connector-curvature="0" />
    <path
       d="m 274.63641,590.02426 1.20249,5.17767 -0.73894,16.81923 -2.07232,4.05221 1.51879,4.89699 -0.10093,6.98713 -2.17866,5.442 0.49626,6.51295 -1.12886,6.09331 2.27409,5.5946 -9.58717,21.05403 c 0,0 12.75018,-9.77761 32.0145,-7.96816 19.2616,1.81219 22.74092,9.73947 22.74092,9.73947 l -5.72613,-19.96127 1.89234,-5.88347 -0.68441,-6.93536 1.35247,-6.30857 -1.87054,-6.14235 0.62987,-6.69554 2.28772,-4.42281 -2.33681,-4.02768 1.92235,-22.33755 c 0,0 3.03213,-3.37367 3.4275,-7.5594 0.39265,-4.18574 -2.03959,-5.25669 -2.03959,-5.25669 l 0.62987,-6.69827 11.33228,-237.06903 -13.28189,-38.40739 c 0,0 -1.04433,-6.8536 -4.39548,-7.16699 -3.35115,-0.3161 -5.89246,8.73391 -5.89246,8.73391 L 290.45142,332.2609 274.6364,590.02426"
       style="fill:#ffffff;fill-opacity:1;fill-rule:evenodd;stroke:none"
       id="path33209"
       inkscape:connector-curvature="0" />
    <path
       d="m 274.63642,590.02424 1.20248,5.17766 -0.73893,16.81925 -2.07232,4.05221 1.51879,4.89698 -0.10093,6.98714 -2.17866,5.44198 0.49626,6.51296 -1.12886,6.09329 2.27409,5.59462 -9.58717,21.05403 c 0,0 12.75017,-9.77761 32.0145,-7.96815 19.2616,1.81218 22.74092,9.73946 22.74092,9.73946 l -5.72613,-19.96127 1.89234,-5.88347 -0.6844,-6.93535 1.35246,-6.30857 -1.87054,-6.14236 0.62987,-6.69554 2.28772,-4.42281 -2.33681,-4.02768 1.92235,-22.33755 c 0,0 3.03213,-3.37366 3.4275,-7.55939 0.39264,-4.18574 -2.03959,-5.25669 -2.03959,-5.25669 l 0.62987,-6.69827 11.33228,-237.06904 -13.2819,-38.40738 c 0,0 -1.04433,-6.8536 -4.39547,-7.16699 -3.35115,-0.31611 -5.89246,8.7339 -5.89246,8.7339 l -15.87228,33.97368 -15.81502,257.76335 z"
       style="fill:none;stroke:#000000;stroke-width:2.4260571;stroke-linecap:round;stroke-linejoin:round;stroke-miterlimit:11.5;stroke-opacity:1;stroke-dasharray:none"
       id="path33211"
       inkscape:connector-curvature="0" />
    <path
       d="m 291.11677,327.02327 c 0,0 8.72825,-6.95715 19.98691,-5.96522 14.87975,1.31622 18.77624,7.15064 18.77624,7.15064"
       style="fill:none;stroke:#000000;stroke-width:1.21302855;stroke-linecap:butt;stroke-linejoin:miter;stroke-miterlimit:14.30000019;stroke-opacity:1;stroke-dasharray:none"
       id="path33213"
       inkscape:connector-curvature="0" />
    <path
       d="m 309.22223,591.14426 -89.25125,-5.47197 4.53727,-27.83677 c 0,0 3.14937,-8.30879 9.51628,-13.82982 6.36963,-5.52103 54.09282,-52.47702 59.7317,-59.75573 5.63886,-7.27871 11.93488,-35.84308 11.93488,-35.84308 l 5.22986,-97.74892 c 0,0 3.14392,-20.25558 7.93478,-27.59424 4.78814,-7.33866 12.79654,-11.89229 14.91521,-17.71308 2.12139,-5.8235 10.1216,-22.32118 17.82733,-22.62639 7.70574,-0.30795 15.05427,16.4241 17.6692,27.70051 2.61493,11.27914 8.51284,36.43988 9.72897,43.35071 1.21612,6.91354 16.36854,94.16269 22.50095,103.98118 6.13242,9.82122 56.02062,40.66105 60.63424,47.81439 4.61363,7.15064 10.57153,31.46387 10.33158,34.85933 -0.23996,3.39546 -89.77478,38.00407 -89.77478,38.00407 l -7.57213,22.50106 -59.75624,11.97404 c 0,0 -8.13382,-5.69544 -6.80045,-12.4264 1.33064,-6.73097 0.6626,-9.33889 0.6626,-9.33889"
       style="fill:#ffffff;fill-opacity:1;fill-rule:evenodd;stroke:none"
       id="path33215"
       inkscape:connector-curvature="0" />
    <path
       d="m 309.22224,591.14425 -89.25126,-5.47197 4.53728,-27.83677 c 0,0 3.14936,-8.30879 9.51628,-13.82983 6.36964,-5.52103 54.09282,-52.47702 59.73169,-59.75573 5.63888,-7.27871 11.93489,-35.84308 11.93489,-35.84308 l 5.22986,-97.74891 c 0,0 3.14393,-20.25558 7.93479,-27.59424 4.78813,-7.33866 12.79653,-11.89229 14.91519,-17.71308 2.1214,-5.8235 10.12161,-22.32118 17.82734,-22.62639 7.70574,-0.30795 15.05427,16.4241 17.66921,27.70051 2.61492,11.27913 8.51283,36.43987 9.72896,43.3507 1.21612,6.91354 16.36854,94.16268 22.50095,103.98118 6.13242,9.82121 56.02062,40.66103 60.63424,47.81439 4.61363,7.15064 10.57154,31.46387 10.33158,34.85934 -0.23996,3.39545 -89.77479,38.00407 -89.77479,38.00407 l -7.57213,22.50106 -59.75623,11.97403 c 0,0 -8.13382,-5.69543 -6.80045,-12.4264 1.33064,-6.73097 0.6626,-9.33888 0.6626,-9.33888 z m -6.23058,-80.64626 8.39014,-163.03383"
       style="fill:none;stroke:#000000;stroke-width:2.4260571;stroke-linecap:round;stroke-linejoin:round;stroke-miterlimit:14.30000019;stroke-opacity:1;stroke-dasharray:none"
       id="path33217"
       inkscape:connector-curvature="0" />
    <path
       d="m 273.97382,652.72852 c 0,0 8.57011,-5.83442 19.72243,-4.87791 14.73795,1.26717 18.65354,6.27043 18.65354,6.27043 m -38.09784,-14.63646 c 0,0 8.56737,-5.83168 19.71969,-4.87518 14.73797,1.26445 18.65354,6.26771 18.65354,6.26771 M 274.481,626.90286 c 0,0 8.69553,-5.82624 20.02509,-4.8561 14.96973,1.28078 18.95348,6.29222 18.95348,6.29222 M 275.3699,614.36473 c 0,0 8.72826,-6.95714 19.98692,-5.9625 14.87976,1.31349 18.77625,7.15064 18.77625,7.15064 m -38.25326,-17.72944 c 0,0 8.72825,-6.95714 19.98692,-5.96247 14.87975,1.31349 18.77624,7.15062 18.77624,7.15062 m -40.39102,31.10689 c 0,0 8.69008,-5.73905 20.01964,-4.77164 14.97246,1.27807 18.95893,6.22683 18.95893,6.22683 m -37.62611,-20.50629 c 0,0 8.72826,-6.95715 19.98691,-5.96522 14.87975,1.31622 18.77624,7.15064 18.77624,7.15064 m -40.391,31.10959 c 0,0 8.82914,-6.41211 20.28139,-5.41747 15.13334,1.31349 19.13344,6.76095 19.13344,6.76095 m 97.66867,-15.41582 c 0,0 8.96275,-5.80716 20.66042,-4.80979 15.45781,1.31622 19.58063,6.33311 19.58063,6.33311 m -40.04473,-14.1105 c 0,0 8.96548,-5.80444 20.66041,-4.80979 15.45783,1.31621 19.58064,6.33584 19.58064,6.33584 m -39.34941,-14.06146 c 0,0 9.12636,-6.9299 20.93309,-5.89708 15.60506,1.36525 19.71152,7.21602 19.71152,7.21602 M 412.6252,587.62345 c 0,0 9.12636,-6.92992 20.93581,-5.89711 15.60506,1.36528 19.71152,7.21604 19.71152,7.21604 m -42.2452,30.9788 c 0,0 8.92731,-5.72269 20.58134,-4.73348 15.40056,1.30804 19.50974,6.26498 19.50974,6.26498 m -38.73862,-20.58532 c 0,0 9.12909,-6.92716 20.93581,-5.89436 15.60507,1.36527 19.71153,7.21604 19.71153,7.21604 m -42.24247,30.97607 c 0,0 9.23542,-6.38216 21.24665,-5.34935 15.87502,1.36799 20.08508,6.82907 20.08508,6.82907 m -38.97585,-54.27829 c 0,0 9.12637,-6.92992 20.93582,-5.89711 15.60507,1.36527 19.71153,7.21604 19.71153,7.21604 m -39.37941,-9.85119 c 0,0 9.12635,-6.9299 20.93581,-5.8971 15.60506,1.36527 19.71152,7.21876 19.71152,7.21876 m -37.91242,-95.95307 c 0,0 9.12635,-6.9299 20.93582,-5.89709 15.60505,1.36527 19.71151,7.21603 19.71151,7.21603 m -39.39304,-37.70432 c 0,0 9.12636,-6.92717 20.93582,-5.89436 15.60506,1.36527 19.71151,7.21603 19.71151,7.21603 M 418.8994,405.70747 c 0,0 9.12636,-6.92718 20.93582,-5.89437 15.60506,1.36527 19.7115,7.21603 19.7115,7.21603 m -38.59137,-39.63641 c 0,0 9.12636,-6.9299 20.93582,-5.89709 15.60505,1.368 19.71151,7.21876 19.71151,7.21876 m -40.75912,-37.1375 c 0,0 9.12635,-6.9299 20.93581,-5.89709 15.60506,1.36527 19.71151,7.21604 19.71151,7.21604 M 421.4898,303.77009 c 0,0 9.12635,-6.92716 20.9358,-5.89436 15.60507,1.36527 19.71152,7.21603 19.71152,7.21603 M 283.45194,463.0842 c 0,0 8.72824,-6.95989 19.98691,-5.96522 1.42063,0.12535 2.74036,0.29157 3.96738,0.49051 m -22.08649,-30.20216 c 0,0 8.72825,-6.95714 19.98691,-5.9652 1.42063,0.12534 2.74036,0.2943 3.96739,0.49323 m -22.69728,-30.91068 c 0,0 8.72552,-6.95714 19.98419,-5.9652 1.42062,0.12535 2.74308,0.2943 3.96739,0.49323 m -22.17921,-28.88593 c 0,0 8.72826,-6.95715 19.98691,-5.9625 1.42062,0.12536 2.74037,0.2916 3.9674,0.49052"
       style="fill:none;stroke:#000000;stroke-width:1.21302855;stroke-linecap:butt;stroke-linejoin:miter;stroke-miterlimit:14.30000019;stroke-opacity:1;stroke-dasharray:none"
       id="path33219"
       inkscape:connector-curvature="0" />
    <path
       d="m 290.17604,532.43768 c 0,0 -3.48476,11.69062 -3.85832,16.96912 -0.37628,5.27849 -0.61079,8.57858 -0.61079,8.57858 l -0.60805,8.57858 3.25844,10.17821 15.98407,-0.85569 6.32601,13.70991"
       style="fill:none;stroke:#000000;stroke-width:2.4260571;stroke-linecap:round;stroke-linejoin:round;stroke-miterlimit:14.30000019;stroke-opacity:1;stroke-dasharray:none"
       id="path33221"
       inkscape:connector-curvature="0" />
    <path
       d="m 331.89497,507.88193 -5.36347,-10.10462 -35.51291,22.78718 0.67351,27.89945 c 1.97959,0.1417 26.73828,6.53749 26.73828,6.53749"
       style="fill:#ffffff;fill-opacity:1;fill-rule:evenodd;stroke:none"
       id="path33223"
       inkscape:connector-curvature="0" />
    <path
       d="m 331.89498,507.88191 -5.36347,-10.10462 -35.51291,22.78719 0.6735,27.89945 c 1.9796,0.1417 26.7383,6.53748 26.7383,6.53748"
       style="fill:none;stroke:#000000;stroke-width:2.4260571;stroke-linecap:round;stroke-linejoin:round;stroke-miterlimit:14.30000019;stroke-opacity:1;stroke-dasharray:none"
       id="path33225"
       inkscape:connector-curvature="0" />
    <path
       d="m 311.34908,346.27875 c 0,0 11.45226,-11.79146 19.41976,-11.88957 7.97022,-0.0982 19.38157,-1.94298 27.77445,1.30532 8.39558,3.2483 11.41408,7.44222 11.41408,7.44222 m -36.94989,-7.96816 -5.64705,159.45853 m 42.59966,-151.49037 -7.93751,158.58922 m -53.62381,-113.8787 c 0,0 6.7759,-11.59798 22.1083,-12.361 21.97197,-1.09549 32.44261,0.97285 36.5027,9.21897 m -59.58173,44.8495 c 0,0 6.77865,-11.59798 22.11105,-12.361 21.97196,-1.09549 32.43987,0.97286 36.49997,9.21897 m -61.65949,46.29924 c 0,0 6.77591,-11.60069 22.11103,-12.37734 21.97469,-1.11729 32.44533,0.94288 36.5027,9.18355 m -59.8653,39.57373 c 0,0 6.795,-11.8705 22.17647,-13.34204 22.04559,-2.10649 32.55168,-0.52867 36.62541,7.50217 m 13.78633,-157.055 c 0,0 2.78945,16.77564 2.1323,26.01369 -0.65441,9.23533 -5.18351,101.08987 -5.17804,110.37423 0.005,9.28439 -0.968,41.70748 -0.0246,47.07863 0.94618,5.37387 0.61895,9.99018 2.83851,16.11618 2.21956,6.126 3.74108,31.43116 3.74108,31.43116"
       style="fill:none;stroke:#000000;stroke-width:1.21302855;stroke-linecap:round;stroke-linejoin:round;stroke-miterlimit:14.30000019;stroke-opacity:1;stroke-dasharray:none"
       id="path33227"
       inkscape:connector-curvature="0" />
    <path
       d="m 361.81261,294.31951 c 0,0 -4.19643,-1.62416 -10.51698,-1.40887 -6.31783,0.21527 -10.72422,1.56147 -10.72422,1.56147 0,0 7.04314,-10.44527 11.97034,-9.76671 4.9272,0.68127 9.22451,10.27357 9.27086,9.61411"
       style="fill:#000000;fill-opacity:1;fill-rule:evenodd;stroke:none"
       id="path33229"
       inkscape:connector-curvature="0" />
    <path
       d="m 361.81262,294.31949 c 0,0 -4.19643,-1.62415 -10.51698,-1.40886 -6.31783,0.21527 -10.72422,1.56147 -10.72422,1.56147 0,0 7.04314,-10.44527 11.97034,-9.76671 4.9272,0.68127 9.22451,10.27357 9.27086,9.6141 z"
       style="fill:none;stroke:#000000;stroke-width:1.21302855;stroke-linecap:round;stroke-linejoin:round;stroke-miterlimit:14.30000019;stroke-opacity:1;stroke-dasharray:none"
       id="path33231"
       inkscape:connector-curvature="0" />
    <path
       d="m 344.52789,290.10925 c 0,0 3.01849,-0.44965 6.01244,-0.56682 2.99395,-0.1199 8.58101,0.60769 8.58101,0.60769 0,0 -1.58151,-5.75266 -6.55506,-5.77447 -4.97627,-0.0191 -7.73027,6.08785 -8.03839,5.7336"
       style="fill:#ffffff;fill-opacity:1;fill-rule:evenodd;stroke:none"
       id="path33233"
       inkscape:connector-curvature="0" />
    <path
       d="m 344.5279,290.10923 c 0,0 3.01849,-0.44965 6.01244,-0.56681 2.99395,-0.11991 8.58101,0.60769 8.58101,0.60769 0,0 -1.58151,-5.75267 -6.55504,-5.77447 -4.97629,-0.0191 -7.73029,6.08784 -8.03841,5.73359 z m -7.72754,10.72594 c 0,0 8.18017,-3.07118 17.0475,-1.77948 8.86458,1.29169 12.37934,3.20198 12.37934,3.20198"
       style="fill:none;stroke:#000000;stroke-width:1.21302855;stroke-linecap:round;stroke-linejoin:round;stroke-miterlimit:14.30000019;stroke-opacity:1;stroke-dasharray:none"
       id="path33235"
       inkscape:connector-curvature="0" />
    <path
       d="m 330.13623,315.28089 c 0,0 6.38599,-5.84804 14.8743,-3.91868 8.48829,1.92663 11.27229,4.77707 11.27229,4.77707 l 2.24137,1.15544 c 0,0 1.25156,5.72542 -0.37629,5.27849 -1.62513,-0.44691 -8.04113,-3.55352 -7.92388,-5.20492 0.11725,-1.64866 -3.04302,-3.86416 -8.65463,-4.26203 -5.61161,-0.39786 -11.07869,1.86942 -11.43316,2.17463"
       style="fill:#000000;fill-opacity:1;fill-rule:evenodd;stroke:none"
       id="path33237"
       inkscape:connector-curvature="0" />
    <path
       d="m 330.13624,315.28086 c 0,0 6.386,-5.84803 14.8743,-3.91868 8.48829,1.92664 11.27229,4.77708 11.27229,4.77708 l 2.24137,1.15545 c 0,0 1.25156,5.72541 -0.3763,5.27849 -1.62512,-0.44691 -8.04112,-3.55352 -7.92387,-5.20492 0.11725,-1.64867 -3.04303,-3.86417 -8.65463,-4.26204 -5.61161,-0.39786 -11.07869,1.86942 -11.43316,2.17462 z"
       style="fill:none;stroke:#000000;stroke-width:1.21302855;stroke-linecap:round;stroke-linejoin:round;stroke-miterlimit:14.30000019;stroke-opacity:1;stroke-dasharray:none"
       id="path33239"
       inkscape:connector-curvature="0" />
    <path
       d="m 335.87599,327.19224 5.34711,-0.54502 -0.3054,4.28929 -5.3471,0.54502"
       style="fill:#000000;fill-opacity:1;fill-rule:evenodd;stroke:none"
       id="path33241"
       inkscape:connector-curvature="0" />
    <path
       d="m 335.876,327.19223 5.34711,-0.54502 -0.3054,4.28929 -5.3471,0.54501 0.30539,-4.28928 z"
       style="fill:none;stroke:#000000;stroke-width:1.21302855;stroke-linecap:round;stroke-linejoin:round;stroke-miterlimit:14.30000019;stroke-opacity:1;stroke-dasharray:none"
       id="path33243"
       inkscape:connector-curvature="0" />
    <path
       d="m 326.8696,327.88169 5.34712,-0.54501 -0.30539,4.28928 -5.3444,0.54501"
       style="fill:#000000;fill-opacity:1;fill-rule:evenodd;stroke:none"
       id="path33245"
       inkscape:connector-curvature="0" />
    <path
       d="m 326.86961,327.88168 5.34712,-0.54502 -0.30539,4.28928 -5.34439,0.54502 0.30266,-4.28928 z"
       style="fill:none;stroke:#000000;stroke-width:1.21302855;stroke-linecap:round;stroke-linejoin:round;stroke-miterlimit:14.30000019;stroke-opacity:1;stroke-dasharray:none"
       id="path33247"
       inkscape:connector-curvature="0" />
    <path
       d="m 340.43235,592.62399 c 0,0 0.70349,-8.2979 2.19773,-12.98232 1.4479,-4.54544 6.93953,-9.84029 6.93953,-9.84029 0,0 0.99253,-0.0326 4.30006,-0.14987 3.30751,-0.11446 5.34983,1.46881 5.34983,1.46881 0,0 3.03212,3.68159 4.90539,7.77196 1.79145,3.90778 2.14865,14.1541 2.14865,14.1541"
       style="fill:#000000;fill-opacity:1;fill-rule:evenodd;stroke:none"
       id="path33249"
       inkscape:connector-curvature="0" />
    <path
       d="m 340.43236,592.62398 c 0,0 0.70349,-8.2979 2.19774,-12.98232 1.44789,-4.54544 6.93952,-9.8403 6.93952,-9.8403 0,0 0.99253,-0.0327 4.30006,-0.14987 3.30751,-0.11446 5.34983,1.46881 5.34983,1.46881 0,0 3.03211,3.6816 4.90539,7.77196 1.79146,3.90778 2.14865,14.1541 2.14865,14.1541"
       style="fill:none;stroke:#000000;stroke-width:1.21302855;stroke-linecap:round;stroke-linejoin:round;stroke-miterlimit:14.30000019;stroke-opacity:1;stroke-dasharray:none"
       id="path33251"
       inkscape:connector-curvature="0" />
    <path
       d="m 311.20455,597.94064 c 0,0 0.62715,-7.70655 1.97142,-12.05578 1.30338,-4.22117 6.25785,-9.13178 6.25785,-9.13178 0,0 0.8971,-0.0299 3.88286,-0.13626 2.98577,-0.10351 4.83176,1.37072 4.83176,1.37072 0,0 2.74036,3.41999 4.43639,7.22149 1.6224,3.63254 1.95506,13.14855 1.95506,13.14855"
       style="fill:#000000;fill-opacity:1;fill-rule:evenodd;stroke:none"
       id="path33253"
       inkscape:connector-curvature="0" />
    <path
       d="m 311.20456,597.94062 c 0,0 0.62715,-7.70655 1.97142,-12.05579 1.30338,-4.22117 6.25785,-9.13177 6.25785,-9.13177 0,0 0.8971,-0.0299 3.88286,-0.13625 2.98577,-0.10351 4.83175,1.37072 4.83175,1.37072 0,0 2.74037,3.41998 4.43639,7.22148 1.62241,3.63254 1.95507,13.14855 1.95507,13.14855"
       style="fill:none;stroke:#000000;stroke-width:1.21302855;stroke-linecap:round;stroke-linejoin:round;stroke-miterlimit:14.30000019;stroke-opacity:1;stroke-dasharray:none"
       id="path33255"
       inkscape:connector-curvature="0" />
    <path
       d="m 335.22975,601.45055 c -0.38174,5.37388 -6.30965,9.33615 -13.2328,8.84564 -6.92317,-0.49052 -12.23483,-5.24852 -11.85309,-10.6224 0.38174,-5.37114 6.30964,-9.33343 13.23281,-8.8429 6.92589,0.49051 12.23482,5.24852 11.85308,10.61966"
       style="fill:#ffffff;fill-opacity:1;fill-rule:evenodd;stroke:none"
       id="path33257"
       inkscape:connector-curvature="0" />
    <path
       d="m 335.22976,601.45053 c -0.38174,5.37388 -6.30965,9.33616 -13.2328,8.84565 -6.92317,-0.49052 -12.23483,-5.24852 -11.85309,-10.62241 0.38174,-5.37114 6.30964,-9.33343 13.2328,-8.8429 6.9259,0.49051 12.23483,5.24851 11.85309,10.61966 z"
       style="fill:none;stroke:#000000;stroke-width:1.21302855;stroke-linecap:round;stroke-linejoin:round;stroke-miterlimit:14.30000019;stroke-opacity:1;stroke-dasharray:none"
       id="path33259"
       inkscape:connector-curvature="0" />
    <path
       d="m 367.52784,595.12017 c -0.38175,5.37116 -6.7541,9.30346 -14.22533,8.77479 -7.46852,-0.52867 -13.22191,-5.31938 -12.84289,-10.69325 0.38174,-5.37387 6.7541,-9.30345 14.22533,-8.77479 7.46851,0.52867 13.22463,5.31938 12.84289,10.69325"
       style="fill:#ffffff;fill-opacity:1;fill-rule:evenodd;stroke:none"
       id="path33261"
       inkscape:connector-curvature="0" />
    <path
       d="m 367.52785,595.12015 c -0.38174,5.37116 -6.7541,9.30346 -14.22533,8.7748 -7.46852,-0.52869 -13.22191,-5.31938 -12.84289,-10.69326 0.38174,-5.37386 6.7541,-9.30344 14.22533,-8.77478 7.46851,0.52866 13.22463,5.31938 12.84289,10.69324 z"
       style="fill:none;stroke:#000000;stroke-width:1.21302855;stroke-linecap:round;stroke-linejoin:round;stroke-miterlimit:14.30000019;stroke-opacity:1;stroke-dasharray:none"
       id="path33263"
       inkscape:connector-curvature="0" />
    <path
       d="m 313.61771,571.40374 c 0,0 1.57604,-8.178 3.55565,-12.67984 1.91689,-4.36832 7.94023,-9.05274 7.94023,-9.05274 0,0 0.98981,0.0681 4.28915,0.30248 3.30207,0.23436 5.16441,2.02474 5.16441,2.02474 0,0 2.62857,3.98136 4.0601,8.24611 1.36882,4.07674 0.64351,14.30399 0.64351,14.30399"
       style="fill:#000000;fill-opacity:1;fill-rule:evenodd;stroke:none"
       id="path33265"
       inkscape:connector-curvature="0" />
    <path
       d="m 313.61772,571.40372 c 0,0 1.57604,-8.17799 3.55565,-12.67983 1.91689,-4.36832 7.94023,-9.05276 7.94023,-9.05276 0,0 0.98981,0.0681 4.28915,0.3025 3.30206,0.23435 5.16441,2.02473 5.16441,2.02473 0,0 2.62857,3.98136 4.0601,8.24612 1.36882,4.07673 0.64351,14.30398 0.64351,14.30398"
       style="fill:none;stroke:#000000;stroke-width:1.21302855;stroke-linecap:round;stroke-linejoin:round;stroke-miterlimit:14.30000019;stroke-opacity:1;stroke-dasharray:none"
       id="path33267"
       inkscape:connector-curvature="0" />
    <path
       d="m 339.3662,575.88378 c -0.36811,5.19129 -6.5087,8.99006 -13.70454,8.48047 -7.19855,-0.50959 -12.73927,-5.13679 -12.37115,-10.32809 0.3681,-5.19128 6.50596,-8.99006 13.70452,-8.48046 7.19584,0.50959 12.73927,5.13678 12.37117,10.32808"
       style="fill:#ffffff;fill-opacity:1;fill-rule:evenodd;stroke:none"
       id="path33269"
       inkscape:connector-curvature="0" />
    <path
       d="m 339.36621,575.88377 c -0.36811,5.19128 -6.5087,8.99005 -13.70454,8.48046 -7.19856,-0.50958 -12.73926,-5.13679 -12.37116,-10.32808 0.36811,-5.19129 6.50597,-8.99007 13.70454,-8.48048 7.19583,0.5096 12.73926,5.13679 12.37116,10.3281 z"
       style="fill:none;stroke:#000000;stroke-width:1.21302855;stroke-linecap:round;stroke-linejoin:round;stroke-miterlimit:14.30000019;stroke-opacity:1;stroke-dasharray:none"
       id="path33271"
       inkscape:connector-curvature="0" />
    <path
       d="m 305.10759,574.44765 -0.45264,-12.30104 7.82299,-7.40407 -21.19759,-5.14768 -2.33952,-9.12088 -2.87125,7.7556 -0.29721,18.21722 4.36549,8.59765 14.96973,-0.5968"
       style="fill:#000000;fill-opacity:1;fill-rule:evenodd;stroke:none"
       id="path33273"
       inkscape:connector-curvature="0" />
    <path
       d="m 305.1076,574.44763 -0.45264,-12.30105 7.82299,-7.40405 -21.19759,-5.14769 -2.33953,-9.12088 -2.87125,7.75561 -0.2972,18.21721 4.36549,8.59765 14.96973,-0.5968 z"
       style="fill:none;stroke:#000000;stroke-width:1.21302855;stroke-linecap:round;stroke-linejoin:round;stroke-miterlimit:14.30000019;stroke-opacity:1;stroke-dasharray:none"
       id="path33275"
       inkscape:connector-curvature="0" />
    <path
       d="m 329.70814,545.68707 c 0,0 9.07999,2.9649 9.928,5.01417 0.85075,2.04926 2.93123,10.15368 2.93123,10.15368 l 1.08797,8.03628 c 0,0 5.3962,-5.91616 12.84834,-3.39819 7.44942,2.51526 8.93821,9.58687 8.93821,9.58687 l 2.85489,1.85851 7.733,-1.44158 -12.41206,-21.43827 0.0872,-10.60603 c 0,0 -4.92991,-5.3221 -15.9159,-4.77436 -10.98599,0.54774 -18.08094,7.00892 -18.08094,7.00892"
       style="fill:#000000;fill-opacity:1;fill-rule:evenodd;stroke:none"
       id="path33277"
       inkscape:connector-curvature="0" />
    <path
       d="m 329.70815,545.68706 c 0,0 9.07999,2.96489 9.928,5.01417 0.85075,2.04926 2.93123,10.15367 2.93123,10.15367 l 1.08797,8.03629 c 0,0 5.3962,-5.91617 12.84834,-3.39819 7.44942,2.51525 8.93821,9.58686 8.93821,9.58686 l 2.85489,1.85851 7.733,-1.44157 -12.41206,-21.43827 0.0872,-10.60603 c 0,0 -4.92991,-5.32211 -15.9159,-4.77437 -10.98599,0.54775 -18.08092,7.00893 -18.08092,7.00893 z"
       style="fill:none;stroke:#000000;stroke-width:1.21302855;stroke-linecap:round;stroke-linejoin:round;stroke-miterlimit:14.30000019;stroke-opacity:1;stroke-dasharray:none"
       id="path33279"
       inkscape:connector-curvature="0" />
    <path
       d="m 317.89867,553.14019 -20.10688,-9.21625 -0.24814,-7.8101 c 0.9898,0.0708 29.80313,0.78483 29.80313,0.78483 l -0.49627,-2.35448 -28.84331,-0.9129 0.39537,-12.85697 25.65032,-16.9337 -2.75945,-3.18017 -29.55772,19.12467 1.7342,26.9811 24.42875,6.37397"
       style="fill:#000000;fill-opacity:1;fill-rule:evenodd;stroke:none"
       id="path33281"
       inkscape:connector-curvature="0" />
    <path
       d="m 317.89868,553.14018 -20.10689,-9.21626 -0.24813,-7.81009 c 0.9898,0.0708 29.80313,0.78483 29.80313,0.78483 l -0.49627,-2.35449 -28.84332,-0.91289 0.39538,-12.85698 25.65032,-16.9337 -2.75945,-3.18016 -29.55772,19.12466 1.7342,26.9811 24.42875,6.37398 z m 11.19595,-8.15892 c 0,0 0.39537,-14.8926 1.5924,-22.43564 1.19976,-7.54033 2.30408,-13.7617 2.30408,-13.7617 0,0 0.96527,-4.24297 2.70764,-5.44473 7.46852,-2.83409 7.67848,-2.05199 17.30654,-0.76302 0,0 6.53053,1.45792 11.81492,6.47481 5.28441,5.01688 4.95992,18.92028 5.36347,22.59642 0.40356,3.67615 -1.68239,28.39542 -1.68239,28.39542"
       style="fill:none;stroke:#000000;stroke-width:1.21302855;stroke-linecap:round;stroke-linejoin:round;stroke-miterlimit:14.30000019;stroke-opacity:1;stroke-dasharray:none"
       id="path33283"
       inkscape:connector-curvature="0" />
    <path
       d="m 336.31772,606.8326 c 0,0 1.85963,-2.85044 1.69602,-5.18584 -0.16632,-2.33268 -2.17865,-16.07257 -2.17865,-16.07257 l 2.02868,-0.51777 c 0,0 -0.98435,13.85708 1.49151,16.35598 2.47861,2.49618 7.35945,3.83693 7.35945,3.83693 0,0 -11.01053,0.87748 -10.39701,1.58327"
       style="fill:#000000;fill-opacity:1;fill-rule:evenodd;stroke:none"
       id="path33285"
       inkscape:connector-curvature="0" />
    <path
       d="m 336.31773,606.83258 c 0,0 1.85963,-2.85044 1.69602,-5.18584 -0.16632,-2.33268 -2.17865,-16.07257 -2.17865,-16.07257 l 2.02868,-0.51777 c 0,0 -0.98435,13.85709 1.49151,16.35598 2.47861,2.49618 7.35945,3.83693 7.35945,3.83693 0,0 -11.01053,0.87747 -10.39701,1.58327 z"
       style="fill:none;stroke:#000000;stroke-width:1.21302855;stroke-linecap:round;stroke-linejoin:round;stroke-miterlimit:14.30000019;stroke-opacity:1;stroke-dasharray:none"
       id="path33287"
       inkscape:connector-curvature="0" />
    <path
       d="m 284.42809,571.32197 -20.72313,2.18009 0.005,13.92791 -3.98376,0.0491 0.55898,-12.56266 c -1.01161,0.26161 -38.28599,1.92936 -38.28599,1.92936 l 1.43154,-10.84039 61.31865,-8.58676 -0.65441,9.23805 0.33266,4.66535"
       style="fill:#000000;fill-opacity:1;fill-rule:evenodd;stroke:none"
       id="path33289"
       inkscape:connector-curvature="0" />
    <path
       d="m 284.42811,571.32196 -20.72314,2.18007 0.005,13.92793 -3.98375,0.0491 0.55898,-12.56267 c -1.01162,0.26162 -38.28597,1.92936 -38.28597,1.92936 l 1.43152,-10.8404 61.31865,-8.58674 -0.65441,9.23805 0.33266,4.66534 z"
       style="fill:none;stroke:#000000;stroke-width:1.21302855;stroke-linecap:round;stroke-linejoin:round;stroke-miterlimit:14.30000019;stroke-opacity:1;stroke-dasharray:none"
       id="path33291"
       inkscape:connector-curvature="0" />
    <path
       d="m 374.66914,543.23722 93.28681,-19.58248 3.65927,9.21352 -42.31609,11.92226 1.68239,13.71265 -2.07504,1.17995 -3.35388,-13.50007 -47.33872,12.55992 c 0,0 -0.61623,-5.34935 -1.1125,-7.70655 -0.49626,-2.35447 -2.43224,-7.7992 -2.43224,-7.7992"
       style="fill:#000000;fill-opacity:1;fill-rule:evenodd;stroke:none"
       id="path33293"
       inkscape:connector-curvature="0" />
    <path
       d="m 374.66915,543.23721 93.28681,-19.58249 3.65927,9.21352 -42.31609,11.92227 1.68239,13.71264 -2.07504,1.17996 -3.35388,-13.50009 -47.33872,12.55994 c 0,0 -0.61623,-5.34935 -1.1125,-7.70655 -0.49626,-2.35448 -2.43224,-7.7992 -2.43224,-7.7992 z"
       style="fill:none;stroke:#000000;stroke-width:1.21302855;stroke-linecap:round;stroke-linejoin:round;stroke-miterlimit:14.30000019;stroke-opacity:1;stroke-dasharray:none"
       id="path33295"
       inkscape:connector-curvature="0" />
    <path
       d="m 471.63976,537.1848 -10.33703,-22.61823 c 0,0 -0.7553,-3.36821 -2.62038,-5.1586 -1.86236,-1.79037 -7.87752,-5.86437 -7.87752,-5.86437 l -51.20522,-35.79131 c 0,0 -5.91973,-5.39295 -7.52577,-10.81316 -1.60604,-5.41747 -14.63706,-83.59752 -14.63706,-83.59752 0,0 1.22428,-7.87279 0.98706,-9.21352 -0.23722,-1.34348 0.3981,-5.61096 0.3981,-5.61096 0,0 18.27181,93.14078 22.87181,98.44108 4.59998,5.3003 57.47941,45.5226 60.54698,49.05431 3.06756,3.53444 9.39903,31.17228 9.39903,31.17228"
       style="fill:#000000;fill-opacity:1;fill-rule:evenodd;stroke:none"
       id="path33297"
       inkscape:connector-curvature="0" />
    <path
       d="m 471.63977,537.18479 -10.33703,-22.61824 c 0,0 -0.7553,-3.36821 -2.62038,-5.15859 -1.86236,-1.79038 -7.87752,-5.86438 -7.87752,-5.86438 l -51.20522,-35.79132 c 0,0 -5.91973,-5.39293 -7.52577,-10.81315 -1.60604,-5.41747 -14.63706,-83.59751 -14.63706,-83.59751 0,0 1.22428,-7.87279 0.98706,-9.21353 -0.23722,-1.34347 0.3981,-5.61095 0.3981,-5.61095 0,0 18.2718,93.14078 22.87181,98.44108 4.59998,5.30029 57.47941,45.52259 60.54698,49.0543 3.06756,3.53444 9.39903,31.17229 9.39903,31.17229 z"
       style="fill:none;stroke:#000000;stroke-width:1.21302855;stroke-linecap:round;stroke-linejoin:round;stroke-miterlimit:14.30000019;stroke-opacity:1;stroke-dasharray:none"
       id="path33299"
       inkscape:connector-curvature="0" />
    <path
       d="m 393.69625,512.17123 1.56514,-0.22074 -0.008,6.65194 c 0,1.16633 -0.12542,2.08741 -0.37629,2.80685 -0.25085,0.72213 -0.69531,1.32983 -1.34972,1.85304 -0.65442,0.52322 -1.49697,0.85296 -2.5604,1.00284 -1.03343,0.14714 -1.85963,0.0817 -2.51676,-0.20165 -0.65716,-0.28069 -1.11523,-0.74396 -1.39337,-1.41433 -0.28086,-0.67037 -0.41719,-1.59689 -0.41446,-2.82591 l 0.008,-6.65467 1.56514,-0.22074 -0.008,6.67375 c 0,1.01101 0.0819,1.7277 0.25085,2.18279 0.17179,0.45509 0.4581,0.77393 0.8753,0.97559 0.41446,0.20166 0.91071,0.25615 1.5106,0.17167 1.0307,-0.14442 1.74783,-0.49869 2.18684,-1.07367 0.43899,-0.57773 0.6544,-1.57238 0.65713,-3.03303 l 0.008,-6.67373"
       style="fill:#000000;fill-opacity:1;fill-rule:evenodd;stroke:none"
       id="path33301"
       inkscape:connector-curvature="0" />
    <path
       d="m 399.39511,519.17469 1.56514,-0.22073 c 0.0628,0.57227 0.2045,1.01646 0.43627,1.35709 0.22905,0.34064 0.57807,0.5859 1.0607,0.74941 0.48263,0.16077 1.01434,0.19892 1.61967,0.11173 0.53718,-0.0763 1.00071,-0.22618 1.41246,-0.45782 0.409,-0.23435 0.70894,-0.50959 0.91071,-0.84206 0.20179,-0.33518 0.29995,-0.67582 0.30268,-1.04097 0,-0.37334 -0.0872,-0.67583 -0.26177,-0.92926 -0.17724,-0.25071 -0.47991,-0.43329 -0.91892,-0.55864 -0.28357,-0.0846 -0.89435,-0.18258 -1.86234,-0.30521 -0.97072,-0.12263 -1.65512,-0.26433 -2.08867,-0.4333 -0.55899,-0.21255 -0.96526,-0.50959 -1.24067,-0.90472 -0.27267,-0.39513 -0.40901,-0.84751 -0.40628,-1.38435 0,-0.59134 0.15815,-1.14998 0.4799,-1.71135 0.31904,-0.55865 0.77712,-1.00284 1.39336,-1.35709 0.61897,-0.35155 1.28702,-0.57772 2.03959,-0.684 0.83438,-0.11719 1.54878,-0.0817 2.18412,0.10631 0.6326,0.18803 1.10978,0.52049 1.45061,1.01372 0.34084,0.49325 0.51807,1.06824 0.54262,1.74952 l -1.56787,0.22072 c -0.0709,-0.69761 -0.30539,-1.18541 -0.71985,-1.48789 -0.41447,-0.30248 -1.01434,-0.39513 -1.82963,-0.28067 -0.84256,0.11989 -1.44517,0.37332 -1.83237,0.77392 -0.38447,0.40058 -0.57534,0.83114 -0.57534,1.31894 0,0.41965 0.13362,0.74122 0.40628,0.97284 0.26723,0.23436 0.95436,0.4115 2.08868,0.53686 1.13431,0.12534 1.91144,0.25887 2.3668,0.40876 0.65987,0.218 1.13432,0.53684 1.45062,0.97285 0.31357,0.43329 0.46627,0.95106 0.46627,1.57783 0,0.6186 -0.16906,1.21539 -0.51263,1.81218 -0.34356,0.5968 -0.82347,1.08186 -1.46425,1.47701 -0.64078,0.39513 -1.347,0.64312 -2.15139,0.75756 -1.01435,0.14444 -1.846,0.10901 -2.53313,-0.109 -0.68441,-0.21801 -1.21067,-0.60225 -1.60332,-1.17451 -0.38992,-0.575 -0.58897,-1.24264 -0.60805,-2.03565"
       style="fill:#000000;fill-opacity:1;fill-rule:evenodd;stroke:none"
       id="path33303"
       inkscape:connector-curvature="0" />
    <path
       d="m 413.13236,520.55904 4.57272,-12.08849 1.76147,-0.24798 4.54545,10.7968 -1.65785,0.23436 -1.28974,-3.27556 -4.97901,0.70579 -1.29792,3.64073 -1.65512,0.23435 z m 3.45476,-5.27849 3.98102,-0.56137 -1.15613,-2.93493 c -0.36266,-0.91835 -0.63259,-1.60779 -0.82892,-2.10648 -0.2345,0.66764 -0.48264,1.36799 -0.75531,2.13102 l -1.24066,3.47176"
       style="fill:#000000;fill-opacity:1;fill-rule:evenodd;stroke:none"
       id="path33305"
       inkscape:connector-curvature="0" />
    <path
       d="m 256.41915,542.79848 21.23302,-4.38193 -0.92436,13.00412 -21.23303,4.38193"
       style="fill:#000000;fill-opacity:1;fill-rule:evenodd;stroke:none"
       id="path33307"
       inkscape:connector-curvature="0" />
    <path
       d="m 256.41916,542.79847 21.23302,-4.38194 -0.92436,13.00412 -21.23303,4.38194 0.92437,-13.00412 z"
       style="fill:none;stroke:#000000;stroke-width:1.21302855;stroke-linecap:round;stroke-linejoin:round;stroke-miterlimit:14.30000019;stroke-opacity:1;stroke-dasharray:none"
       id="path33309"
       inkscape:connector-curvature="0" />
  </g>
</svg>
